<svg width="160" height="160" viewBox="0 0 160 160" fill="none" xmlns="http://www.w3.org/2000/svg">
<mask id="mask0_2_1265" style="mask-type:alpha" maskUnits="userSpaceOnUse" x="23" y="27" width="118" height="97">
<path fill-rule="evenodd" clip-rule="evenodd" d="M130.3 114.661C127.894 123.596 106.271 123.319 83.164 123.023C78.9704 122.969 74.7279 122.915 70.5426 122.915C34.4646 122.915 23.1762 106.249 23.1763 79.8278C23.1764 53.4062 47.7322 16.2025 85.2066 30.0546C89.7337 31.728 93.3869 33.6195 96.3526 35.6998C98.8644 35.1295 101.914 35.0995 105.567 35.7095C151.383 43.362 143.986 98.1436 130.3 114.661Z" fill="#D2E5CF"/>
</mask>
<g mask="url(#mask0_2_1265)">
<rect width="189.496" height="168.594" transform="matrix(-1 0 0 1 170.121 -10.562)" fill="#D2E5CF"/>
</g>
<rect x="131.486" y="85.6289" width="23.0138" height="17.4292" rx="3.96769" fill="#ECECF0"/>
<rect x="131.486" y="85.6289" width="23.0138" height="17.4292" rx="3.96769" stroke="black"/>
<g clip-path="url(#clip0_2_1265)">
<path fill-rule="evenodd" clip-rule="evenodd" d="M136.851 94.3439C136.851 90.9512 139.601 88.2009 142.994 88.2009C146.386 88.2009 149.137 90.9512 149.137 94.3439C149.137 97.7367 146.386 100.487 142.994 100.487C139.601 100.487 136.851 97.7367 136.851 94.3439Z" fill="#AFAFB5"/>
<path fill-rule="evenodd" clip-rule="evenodd" d="M145.959 92.1354C146.178 92.3535 146.178 92.7071 145.959 92.9252L142.493 96.5552C142.275 96.7733 141.921 96.7733 141.703 96.5552L140.028 94.8798C139.81 94.6617 139.81 94.3081 140.028 94.09C140.246 93.8719 140.6 93.8719 140.818 94.09L142.098 95.3705L145.17 92.1354C145.388 91.9173 145.741 91.9173 145.959 92.1354Z" fill="#E5E5EB"/>
</g>
<rect x="0.5" y="45.5312" width="45.3523" height="25.8062" rx="3.96769" fill="#ECECF0"/>
<rect x="0.5" y="45.5312" width="45.3523" height="25.8062" rx="3.96769" stroke="black"/>
<ellipse cx="6.33015" cy="51.3605" rx="1.86247" ry="1.86154" fill="#54CD83"/>
<rect x="11.1694" y="50.059" width="29.5985" height="2.79231" rx="1.11692" fill="#D4D4D9"/>
<ellipse cx="6.33015" cy="58.4343" rx="1.86247" ry="1.86154" fill="#838DEB"/>
<rect x="11.7275" y="57.317" width="17.3123" height="2.79231" rx="1.11692" fill="#D4D4D9"/>
<ellipse cx="6.33015" cy="65.5082" rx="1.86247" ry="1.86154" fill="#64B5F6"/>
<rect x="11.5434" y="64.2071" width="24.5723" height="2.79231" rx="1.11692" fill="#D4D4D9"/>
<rect x="127.875" y="125.064" width="24.3935" height="18.488" rx="4.22437" fill="#D2E5CF"/>
<rect x="127.875" y="125.064" width="24.3935" height="18.488" rx="4.22437" stroke="black"/>
<path d="M139.548 130.595C139.768 130.17 140.376 130.17 140.596 130.595L141.488 132.315C141.571 132.475 141.722 132.588 141.898 132.623L143.776 132.992C144.225 133.081 144.407 133.626 144.101 133.967L142.756 135.463C142.641 135.59 142.588 135.76 142.609 135.93L142.829 137.714C142.891 138.222 142.323 138.564 141.904 138.27L140.411 137.223C140.207 137.08 139.936 137.08 139.733 137.223L138.24 138.27C137.821 138.564 137.252 138.222 137.315 137.714L137.535 135.93C137.556 135.76 137.502 135.59 137.388 135.463L136.043 133.967C135.736 133.626 135.918 133.081 136.368 132.992L138.245 132.623C138.421 132.588 138.572 132.475 138.655 132.315L139.548 130.595Z" fill="#009535" stroke="#009535" stroke-width="0.885819" stroke-linecap="round" stroke-linejoin="round"/>
<path d="M72.232 118.43L39.5844 120.766C36.7436 120.964 34.2796 118.823 34.0809 115.982L32.1846 88.8638C31.986 86.023 34.1279 83.5589 36.9688 83.3603L69.6163 81.024C72.4571 80.8253 74.9212 82.9673 75.1198 85.8081L77.0161 112.926C77.2147 115.767 75.0728 118.231 72.232 118.43Z" fill="white"/>
<path d="M72.232 118.43L39.5844 120.766C36.7436 120.964 34.2796 118.823 34.0809 115.982L32.1846 88.8638C31.986 86.023 34.1279 83.5589 36.9688 83.3603L69.6163 81.024C72.4571 80.8253 74.9212 82.9673 75.1198 85.8081L77.0161 112.926C77.2147 115.767 75.0728 118.231 72.232 118.43Z" stroke="black" stroke-width="2.21875" stroke-miterlimit="10"/>
<path d="M85.8962 135.261C86.3623 130.03 86.418 119.88 85.7821 115.633" stroke="black" stroke-width="15.5312" stroke-linecap="round" stroke-linejoin="round"/>
<path d="M85.8962 135.261C86.3623 130.03 86.418 119.88 85.7821 115.633" stroke="white" stroke-width="11.0938" stroke-linecap="round" stroke-linejoin="round"/>
<path d="M92.7197 127.112L80.444 127.093" stroke="black" stroke-width="2.21875"/>
<path d="M98.1842 145.579H80.2744C78.8968 145.579 77.7801 144.462 77.7801 143.085V136.963C77.7801 135.585 78.8968 134.469 80.2744 134.469H98.1842C101.252 134.469 103.739 136.956 103.739 140.024C103.739 143.092 101.252 145.579 98.1842 145.579Z" fill="white"/>
<path d="M98.1842 145.579H80.2744C78.8968 145.579 77.7801 144.462 77.7801 143.085V136.963C77.7801 135.585 78.8968 134.469 80.2744 134.469H98.1842C101.252 134.469 103.739 136.956 103.739 140.024C103.739 143.092 101.252 145.579 98.1842 145.579Z" stroke="black" stroke-width="2.21875" stroke-miterlimit="10"/>
<path d="M65.3888 135.261C65.855 130.03 65.9106 119.88 65.2747 115.633" stroke="black" stroke-width="15.5312" stroke-linecap="round" stroke-linejoin="round"/>
<path d="M65.3888 135.261C65.855 130.03 65.9106 119.88 65.2747 115.633" stroke="white" stroke-width="11.0938" stroke-linecap="round" stroke-linejoin="round"/>
<path d="M72.2123 127.112L59.9367 127.093" stroke="black" stroke-width="2.21875"/>
<path d="M77.5504 145.571H59.6407C58.2631 145.571 57.1464 144.455 57.1464 143.077V136.955C57.1464 135.577 58.2631 134.461 59.6407 134.461H77.5504C80.6185 134.461 83.1057 136.948 83.1057 140.016C83.1057 143.084 80.6185 145.571 77.5504 145.571Z" fill="white"/>
<path d="M77.5504 145.571H59.6407C58.2631 145.571 57.1464 144.455 57.1464 143.077V136.955C57.1464 135.577 58.2631 134.461 59.6407 134.461H77.5504C80.6185 134.461 83.1057 136.948 83.1057 140.016C83.1057 143.084 80.6185 145.571 77.5504 145.571Z" stroke="black" stroke-width="2.21875" stroke-miterlimit="10"/>
<path d="M126.277 98.7589C119.388 106.012 101.616 103.14 95.9691 96.4481" stroke="black" stroke-width="15.5312" stroke-linecap="round" stroke-linejoin="round"/>
<path d="M126.277 98.7589C119.388 106.012 101.616 103.14 95.9691 96.4481" stroke="white" stroke-width="11.0938" stroke-linecap="round" stroke-linejoin="round"/>
<path d="M117.096 97.1076C117.096 97.1076 114.887 103.656 120.103 108.754" stroke="black" stroke-width="2.21875"/>
<path d="M109.099 95.8695C109.099 95.8695 104.386 101.388 107.945 108.839" stroke="black" stroke-width="2.21875"/>
<path d="M83.5456 120.582L71.0592 121.455C58.7687 122.314 53.1922 116.921 52.6111 108.612L51.3544 91.0753C50.9593 85.4258 55.2189 80.5257 60.8685 80.1306L84.3432 78.4697C95.168 77.7128 99.6832 86.235 100.078 91.8846L100.733 101.678C101.477 112.322 100.529 119.394 83.5456 120.582Z" fill="white"/>
<path d="M83.5456 120.582L71.0592 121.455C58.7687 122.314 53.1922 116.921 52.6111 108.612L51.3544 91.0753C50.9593 85.4258 55.2189 80.5257 60.8685 80.1306L84.3432 78.4697C95.168 77.7128 99.6832 86.235 100.078 91.8846L100.733 101.678C101.477 112.322 100.529 119.394 83.5456 120.582Z" stroke="black" stroke-width="2.21875" stroke-miterlimit="10"/>
<path d="M94.9299 98.1555C95.4186 98.1213 95.845 98.4901 95.8817 98.9786L96.5703 108.16C96.607 108.649 96.2401 109.075 95.7517 109.112L76.5027 110.56C76.0142 110.596 75.5879 110.23 75.5513 109.741L74.8548 100.449C74.8182 99.9605 75.1852 99.5362 75.6738 99.502L94.9299 98.1555Z" fill="white"/>
<path d="M94.9299 98.1555C95.4186 98.1213 95.845 98.4901 95.8817 98.9786L96.5703 108.16C96.607 108.649 96.2401 109.075 95.7517 109.112L76.5027 110.56C76.0142 110.596 75.5879 110.23 75.5513 109.741L74.8548 100.449C74.8182 99.9605 75.1852 99.5362 75.6738 99.502L94.9299 98.1555Z" stroke="black" stroke-width="1.775" stroke-linecap="round" stroke-linejoin="round"/>
<path d="M80.3596 105.42L78.8985 104.15L80.1808 102.675" stroke="#3C9231" stroke-width="0.7029" stroke-miterlimit="10"/>
<path d="M81.1034 106.631L82.3735 105.17L80.8983 103.887" stroke="#3C9231" stroke-width="0.7029" stroke-miterlimit="10"/>
<path d="M61.2714 26.4076C40.0948 31.8094 31.6753 51.5836 37.1301 70.6069C43.5822 93.1079 61.2032 96.9379 80.2912 92.7377C97.5931 88.9305 105.51 81.1209 100.717 51.6811C97.2349 30.2881 83.1431 20.8284 61.2714 26.4076Z" fill="white"/>
<path d="M61.2714 26.4076C40.0948 31.8094 31.6753 51.5836 37.1301 70.6069C43.5822 93.1079 61.2032 96.9379 80.2912 92.7377C97.5931 88.9305 105.51 81.1209 100.717 51.6811C97.2349 30.2881 83.1431 20.8284 61.2714 26.4076Z" stroke="black" stroke-width="2.21875" stroke-miterlimit="10"/>
<path d="M86.5922 85.736C71.2309 90.3717 56.6212 89.3567 50.3414 71.2026C45.874 58.2884 50.2432 39.7174 71.3955 33.5436C93.9063 26.9733 101.903 39.5679 106.037 54.5397C110.231 69.7272 101.638 81.1958 86.5922 85.736Z" fill="black"/>
<path d="M39.3686 58.5394C33.3023 60.2789 29.8222 66.7021 31.5954 72.8862C33.3687 79.0702 39.7238 82.6733 45.7901 80.9338C51.8564 79.1943 54.3462 72.9396 52.5729 66.7556C50.7997 60.5715 45.4349 56.7999 39.3686 58.5394Z" fill="white"/>
<path d="M39.3686 58.5394C33.3023 60.2789 29.8222 66.7021 31.5954 72.8862C33.3687 79.0702 39.7238 82.6733 45.7901 80.9338C51.8564 79.1943 54.3462 72.9396 52.5729 66.7556C50.7997 60.5715 45.4349 56.7999 39.3686 58.5394Z" stroke="black" stroke-width="2.21875"/>
<path d="M36.9033 60.4021C33.35 61.3446 29.8237 66.7034 31.5969 72.8875C33.3702 79.0715 39.7735 82.0837 43.1099 81.2424C47.4781 80.141 49.3351 73.5715 47.7451 68.0263C46.5521 63.866 42.2658 58.9798 36.9033 60.4021Z" fill="white"/>
<path d="M36.9033 60.4021C33.35 61.3446 29.8237 66.7034 31.5969 72.8875C33.3702 79.0715 39.7735 82.0837 43.1099 81.2424C47.4781 80.141 49.3351 73.5715 47.7451 68.0263C46.5521 63.866 42.2658 58.9798 36.9033 60.4021Z" stroke="black" stroke-width="2.21875"/>
<path d="M55.8315 98.1844C64.7884 110.83 77.6374 102.147 82.4997 93.1477" stroke="black" stroke-width="15.5312" stroke-linecap="round" stroke-linejoin="round"/>
<path d="M55.8315 98.1844C64.7884 110.83 77.6374 102.147 82.4997 93.1477" stroke="white" stroke-width="11.0938" stroke-linecap="round" stroke-linejoin="round"/>
<path d="M63.3165 97.2273C57.1259 103.026 61.3482 110.091 61.3482 110.091" stroke="black" stroke-width="2.21875"/>
<path d="M72.1341 95.5752C70.4738 104.649 78.097 107.355 78.097 107.355" stroke="black" stroke-width="2.21875"/>
<path d="M87.5479 78.264C85.5091 78.2725 78.041 84.539 77.1223 88.4968C76.5873 90.8019 78.9466 94.0242 82.105 96.9698C84.7966 99.4801 92.7264 94.2037 94.9801 92.5358C97.2338 90.8679 92.6329 83.5479 93.2876 83.503C93.9423 83.4581 99.1175 82.8056 100.818 82.5632C103.489 82.1825 103.489 77.7435 99.9142 77.2831C99.0288 77.169 89.5868 78.2556 87.5479 78.264Z" fill="white"/>
<path d="M87.5479 78.264C85.5091 78.2725 78.041 84.539 77.1223 88.4968C76.5873 90.8019 78.9466 94.0242 82.105 96.9698C84.7966 99.4801 92.7264 94.2037 94.9801 92.5358C97.2338 90.8679 92.6329 83.5479 93.2876 83.503C93.9423 83.4581 99.1175 82.8056 100.818 82.5632C103.489 82.1825 103.489 77.7435 99.9142 77.2831C99.0288 77.169 89.5868 78.2556 87.5479 78.264Z" stroke="black" stroke-width="2.21875"/>
<g opacity="0.182677">
<path d="M120.004 46.3576C116.361 46.311 113.184 49.2417 113.21 52.8892C113.241 57.0881 116.268 59.6116 120.004 59.6116C123.74 59.6116 126.815 56.9638 126.798 52.8892C126.784 49.3475 123.97 46.4084 120.004 46.3576Z" fill="#369735"/>
<path d="M120.004 46.3576C116.361 46.311 113.184 49.2417 113.21 52.8892C113.241 57.0881 116.268 59.6116 120.004 59.6116C123.74 59.6116 126.815 56.9638 126.798 52.8892C126.784 49.3475 123.97 46.4084 120.004 46.3576Z" stroke="#369735" stroke-width="1.46438" stroke-linejoin="round"/>
<path d="M120.005 59.1636C117.151 59.1636 113.668 57.1667 113.668 53.1729C113.668 50.3668 115.864 46.9839 120.005 47.0048C124.406 47.027 126.359 50.3668 126.359 53.1729C126.359 57.1667 122.59 59.1636 120.005 59.1636Z" fill="black"/>
<path d="M118.818 53.8287L121.081 56.092L123.366 53.8069" stroke="#369735" stroke-width="1.46438" stroke-linejoin="round"/>
<path d="M116.732 52.7405L118.996 50.4771L121.281 52.7623" stroke="#369735" stroke-width="1.46438" stroke-linejoin="round"/>
</g>
<path d="M120.002 47.53C118.172 47.4833 116.576 50.4141 116.589 54.0616C116.605 58.2605 118.125 60.784 120.002 60.784C121.879 60.784 123.423 58.1362 123.414 54.0616C123.407 50.5199 121.994 47.5808 120.002 47.53Z" fill="#369735"/>
<path d="M120.002 47.53C118.172 47.4833 116.576 50.4141 116.589 54.0616C116.605 58.2605 118.125 60.784 120.002 60.784C121.879 60.784 123.423 58.1362 123.414 54.0616C123.407 50.5199 121.994 47.5808 120.002 47.53Z" stroke="#369735" stroke-width="1.46438" stroke-linejoin="round"/>
<path d="M120.001 60.3364C118.568 60.3364 116.818 58.3395 116.818 54.3458C116.818 51.5396 117.921 48.1568 120.001 48.1777C122.212 48.1998 123.193 51.5396 123.193 54.3458C123.193 58.3395 121.3 60.3364 120.001 60.3364Z" fill="black"/>
<path d="M119.996 60.0397C122.707 59.993 125.071 62.9238 125.051 66.5713C125.029 70.7702 122.776 73.2937 119.996 73.2937C117.216 73.2937 114.928 70.6459 114.94 66.5713C114.951 63.0296 117.045 60.0905 119.996 60.0397Z" fill="#369735"/>
<path d="M119.996 60.0397C122.707 59.993 125.071 62.9238 125.051 66.5713C125.029 70.7702 122.776 73.2937 119.996 73.2937C117.216 73.2937 114.928 70.6459 114.94 66.5713C114.951 63.0296 117.045 60.0905 119.996 60.0397Z" stroke="#369735" stroke-width="1.46438" stroke-linejoin="round"/>
<path d="M119.996 72.8499C122.119 72.8499 124.711 70.8531 124.711 66.8593C124.711 64.0532 123.077 60.6703 119.996 60.6912C116.721 60.7134 115.268 64.0532 115.268 66.8593C115.268 70.8531 118.072 72.8499 119.996 72.8499Z" fill="black"/>
<path d="M119.995 79.4982C123.646 79.4515 126.829 82.3822 126.803 86.0297C126.773 90.2287 123.739 92.7521 119.995 92.7521C116.251 92.7521 113.17 90.1043 113.187 86.0297C113.201 82.488 116.021 79.549 119.995 79.4982Z" fill="#369735"/>
<path d="M119.995 79.4982C123.646 79.4515 126.829 82.3822 126.803 86.0297C126.773 90.2287 123.739 92.7521 119.995 92.7521C116.251 92.7521 113.17 90.1043 113.187 86.0297C113.201 82.488 116.021 79.549 119.995 79.4982Z" stroke="#369735" stroke-width="1.46438" stroke-linejoin="round"/>
<path d="M119.994 92.304C122.854 92.304 126.344 90.3071 126.344 86.3134C126.344 83.5072 124.144 80.1244 119.994 80.1452C115.583 80.1674 113.627 83.5072 113.627 86.3134C113.627 90.3071 117.404 92.304 119.994 92.304Z" fill="black"/>
<path d="M121.184 86.9697L118.916 89.233L116.626 86.9479" stroke="#369735" stroke-width="1.46438" stroke-linejoin="round"/>
<path d="M123.275 85.8809L121.007 83.6176L118.717 85.9027" stroke="#369735" stroke-width="1.46438" stroke-linejoin="round"/>
<path d="M128.918 75.6783C128.918 75.6783 128.201 74.4605 127.429 74.3645C123.6 73.8876 118.437 73.4058 115.704 73.1302C114.435 73.0022 113.314 74.5461 113.314 74.5461L106.259 94.6029L107.255 95.8878L121.351 97.3892L128.918 75.6783Z" fill="#5DAACA"/>
<path d="M128.918 75.6783C128.918 75.6783 128.201 74.4605 127.429 74.3645C123.6 73.8876 118.437 73.4058 115.704 73.1302C114.435 73.0022 113.314 74.5461 113.314 74.5461L106.259 94.6029L107.255 95.8878L121.351 97.3892L128.918 75.6783Z" stroke="black" stroke-width="1.775" stroke-linecap="round" stroke-linejoin="round"/>
<path d="M131.149 80.2153C131.149 80.2153 131.789 77.9741 129.942 77.7756C126.108 77.3635 122.244 76.972 118.322 76.6138C116.692 76.4649 115.938 78.0872 115.938 78.0872L108.867 98.2787L109.665 99.3266L123.844 100.836L131.149 80.2153Z" fill="#5DAACA"/>
<path d="M131.149 80.2153C131.149 80.2153 131.789 77.9741 129.942 77.7756C126.108 77.3635 122.244 76.972 118.322 76.6138C116.692 76.4649 115.938 78.0872 115.938 78.0872L108.867 98.2787L109.665 99.3266L123.844 100.836L131.149 80.2153Z" stroke="black" stroke-width="1.775" stroke-linecap="round" stroke-linejoin="round"/>
<path d="M114.313 73.5857L116.769 76.9089L114.313 73.5857Z" fill="#5DAACA"/>
<path d="M114.313 73.5857L116.769 76.9089" stroke="black" stroke-width="1.775" stroke-linecap="round" stroke-linejoin="round"/>
<path d="M128.44 74.9988L130.971 78.5666L128.44 74.9988Z" fill="#5DAACA"/>
<path d="M128.44 74.9988L130.971 78.5666" stroke="black" stroke-width="1.775" stroke-linecap="round" stroke-linejoin="round"/>
<path d="M106.762 95.2142L109.069 98.4695L106.762 95.2142Z" fill="#5DAACA"/>
<path d="M106.762 95.2142L109.069 98.4695" stroke="black" stroke-width="1.775" stroke-linecap="round" stroke-linejoin="round"/>
<path d="M132.351 93.8818C133.239 97.0709 131.579 101.699 129.685 103.656C127.422 105.994 124.071 105.106 120.422 104.052C118.035 103.362 112.663 102.916 111.556 100.545C110.548 98.386 110.892 92.4865 109.346 91.2139C107.344 89.5661 109.302 84.6557 110.516 85.2215C117.854 88.6412 122.695 87.7984 127.747 88.8643C127.481 87.8924 128.375 86.7758 129.925 86.9936C134.355 87.6165 131.793 91.8784 132.351 93.8818Z" fill="white"/>
<path d="M132.351 93.8818C133.239 97.0709 131.579 101.699 129.685 103.656C127.422 105.994 124.071 105.106 120.422 104.052C118.035 103.362 112.663 102.916 111.556 100.545C110.548 98.386 110.892 92.4865 109.346 91.2139C107.344 89.5661 109.302 84.6557 110.516 85.2215C117.854 88.6412 122.695 87.7984 127.747 88.8643C127.481 87.8924 128.375 86.7758 129.925 86.9936C134.355 87.6165 131.793 91.8784 132.351 93.8818Z" stroke="black" stroke-width="2.21875" stroke-linecap="round" stroke-linejoin="round"/>
<defs>
<clipPath id="clip0_2_1265">
<rect width="13.4031" height="13.4031" fill="white" transform="translate(136.292 87.642)"/>
</clipPath>
</defs>
</svg>
