<svg width="160" height="160" viewBox="0 0 160 160" fill="none" xmlns="http://www.w3.org/2000/svg">
<mask id="mask0_2_1785" style="mask-type:alpha" maskUnits="userSpaceOnUse" x="26" y="30" width="108" height="88">
<path fill-rule="evenodd" clip-rule="evenodd" d="M123.64 109.457C121.467 117.526 101.939 117.276 81.0704 117.009C77.2831 116.96 73.4517 116.911 69.6718 116.911C37.0891 116.911 26.8943 101.86 26.8944 77.9986C26.8944 54.1367 49.0713 20.5373 82.9152 33.0474C87.0039 34.5587 90.3033 36.2671 92.9817 38.146C95.25 37.6312 98.0044 37.6041 101.302 38.155C142.68 45.066 136 94.5393 123.64 109.457Z" fill="#D2E5CF"/>
</mask>
<g mask="url(#mask0_2_1785)">
<rect width="171.137" height="152.26" transform="matrix(-1 0 0 1 159.602 -3.63449)" fill="#D2E5CF"/>
</g>
<rect x="124.259" y="82.7865" width="21.6874" height="16.6438" rx="4.03486" fill="#ECECF0"/>
<g clip-path="url(#clip0_2_1785)">
<path fill-rule="evenodd" clip-rule="evenodd" d="M129.556 91.1082C129.556 88.0442 132.04 85.5603 135.104 85.5603C138.168 85.5603 140.651 88.0442 140.651 91.1082C140.651 94.1722 138.168 96.6561 135.104 96.6561C132.04 96.6561 129.556 94.1722 129.556 91.1082Z" fill="#AFAFB5"/>
<path fill-rule="evenodd" clip-rule="evenodd" d="M137.782 89.1125C137.979 89.3094 137.979 89.6288 137.782 89.8257L134.652 93.1041C134.455 93.301 134.135 93.301 133.938 93.1041L132.425 91.591C132.228 91.394 132.228 91.0747 132.425 90.8777C132.622 90.6808 132.941 90.6808 133.138 90.8777L134.295 92.0342L137.069 89.1125C137.266 88.9155 137.585 88.9155 137.782 89.1125Z" fill="#E5E5EB"/>
</g>
<rect x="6.46354" y="47.075" width="40.8617" height="23.2092" rx="3.53486" fill="#ECECF0"/>
<rect x="6.46354" y="47.075" width="40.8617" height="23.2092" rx="3.53486" stroke="black"/>
<ellipse cx="11.6804" cy="52.291" rx="1.68203" ry="1.68119" fill="#54CD83"/>
<rect x="16.0507" y="51.1142" width="26.7309" height="2.52179" rx="1.00871" fill="#D4D4D9"/>
<ellipse cx="11.6804" cy="58.6796" rx="1.68203" ry="1.68119" fill="#838DEB"/>
<rect x="16.5551" y="57.6715" width="15.6351" height="2.52179" rx="1.00871" fill="#D4D4D9"/>
<ellipse cx="11.6804" cy="65.0681" rx="1.68203" ry="1.68119" fill="#64B5F6"/>
<rect x="16.3886" y="63.8913" width="22.1917" height="2.52179" rx="1.00871" fill="#D4D4D9"/>
<path d="M104.421 111.966H55.2714C52.4236 111.966 50.115 109.657 50.115 106.809V79.6253C50.115 76.7775 52.4236 74.4689 55.2714 74.4689H104.421C107.269 74.4689 109.578 76.7775 109.578 79.6253V106.809C109.578 109.657 107.269 111.966 104.421 111.966Z" fill="white"/>
<path d="M104.421 111.966H55.2714C52.4236 111.966 50.115 109.657 50.115 106.809V79.6253C50.115 76.7775 52.4236 74.4689 55.2714 74.4689H104.421C107.269 74.4689 109.578 76.7775 109.578 79.6253V106.809C109.578 109.657 107.269 111.966 104.421 111.966Z" stroke="black" stroke-width="2.21875" stroke-miterlimit="10"/>
<path d="M130.339 88.9992C119.078 99.5498 107.79 93.751 103.368 86.6986" stroke="black" stroke-width="15.5313" stroke-linecap="round" stroke-linejoin="round"/>
<path d="M130.339 88.9992C119.078 99.5498 107.79 93.751 103.368 86.6986" stroke="white" stroke-width="11.0938" stroke-linecap="round" stroke-linejoin="round"/>
<path d="M120.599 87.4441C120.599 87.4441 120.116 95.411 123.058 100.649" stroke="black" stroke-width="2.21875"/>
<path d="M112.919 86.9058C112.919 86.9058 109.586 92.3527 109.377 99.7081" stroke="black" stroke-width="2.21875"/>
<path d="M29.6612 88.9992C40.923 99.5498 52.2107 93.751 56.6323 86.6986" stroke="black" stroke-width="15.5313" stroke-linecap="round" stroke-linejoin="round"/>
<path d="M29.6612 88.9992C40.923 99.5498 52.2107 93.751 56.6323 86.6986" stroke="white" stroke-width="11.0938" stroke-linecap="round" stroke-linejoin="round"/>
<path d="M39.402 87.4441C39.402 87.4441 39.8841 95.411 36.9427 100.649" stroke="black" stroke-width="2.21875"/>
<path d="M47.0817 86.9058C47.0817 86.9058 50.4148 92.3527 50.6237 99.7081" stroke="black" stroke-width="2.21875"/>
<path d="M141.342 88.8103C141.342 88.8103 145.99 88.723 147.565 84.523C148.805 81.2138 146.175 76.2954 144.041 75.5442C142.337 74.9444 140.743 75.8068 140.181 77.1059C139.235 79.2934 143.251 80.9099 140.582 82.8411C138.609 84.2686 134.284 79.3259 130.179 81.0611C126.754 82.5088 125.11 84.633 125.296 88.4946C125.472 92.1331 128.429 96.0031 131.122 96.902C133.692 97.7605 134.448 98.1307 135.803 98.7379C137.191 99.3595 138.859 100.271 139.869 100.974C141.705 102.251 143.307 102.076 144.119 101.092C144.978 100.051 145.247 98.5545 143.792 96.7945C142.337 95.0344 140.127 94.1034 140.127 94.1034" fill="white"/>
<path d="M141.342 88.8103C141.342 88.8103 145.99 88.723 147.565 84.523C148.805 81.2138 146.175 76.2954 144.041 75.5442C142.337 74.9444 140.743 75.8068 140.181 77.1059C139.235 79.2934 143.251 80.9099 140.582 82.8411C138.609 84.2686 134.284 79.3259 130.179 81.0611C126.754 82.5088 125.11 84.633 125.296 88.4946C125.472 92.1331 128.429 96.0031 131.122 96.902C133.692 97.7605 134.448 98.1307 135.803 98.7379C137.191 99.3595 138.859 100.271 139.869 100.974C141.705 102.251 143.307 102.076 144.119 101.092C144.978 100.051 145.247 98.5545 143.792 96.7945C142.337 95.0344 140.127 94.1034 140.127 94.1034" stroke="black" stroke-width="2.21875" stroke-linecap="round" stroke-linejoin="round"/>
<path d="M140.639 88.5915C140.639 88.5915 150.782 90.8583 149.004 95.4328C147.358 99.6708 142.191 95.0932 139.354 93.5163" fill="white"/>
<path d="M140.639 88.5915C140.639 88.5915 150.782 90.8583 149.004 95.4328C147.358 99.6708 142.191 95.0932 139.354 93.5163" stroke="black" stroke-width="2.21875" stroke-linecap="round" stroke-linejoin="round"/>
<path d="M130.727 81.6298C131.194 81.091 131.403 79.1654 132.238 77.6914C133.788 74.9549 136.223 74.6211 138.025 75.0896C139.926 75.5835 140.348 78.2054 139.675 79.3257C138.792 80.7963 137.507 79.5951 137.063 80.6969C136.811 81.323 136.682 81.9677 136.165 82.9071" fill="white"/>
<path d="M130.727 81.6298C131.194 81.091 131.403 79.1654 132.238 77.6914C133.788 74.9549 136.223 74.6211 138.025 75.0896C139.926 75.5835 140.348 78.2054 139.675 79.3257C138.792 80.7963 137.507 79.5951 137.063 80.6969C136.811 81.323 136.682 81.9677 136.165 82.9071" stroke="black" stroke-width="2.21875" stroke-linecap="round" stroke-linejoin="round"/>
<path d="M18.6075 88.8103C18.6075 88.8103 13.9593 88.723 12.3847 84.523C11.144 81.2138 13.7738 76.2954 15.9084 75.5442C17.6127 74.9444 19.2059 75.8067 19.768 77.1059C20.7146 79.2934 16.6987 80.9099 19.3675 82.8411C21.3401 84.2686 25.6656 79.3259 29.7705 81.0611C33.195 82.5088 34.8393 84.6329 34.6532 88.4946C34.4777 92.1331 31.52 96.0031 28.8277 96.902C26.2569 97.7604 25.5014 98.1306 24.146 98.7379C22.7585 99.3595 21.0904 100.271 20.0804 100.974C18.2443 102.251 16.6419 102.076 15.8305 101.092C14.9713 100.051 14.7021 98.5545 16.1572 96.7944C17.6122 95.0344 19.8226 94.1034 19.8226 94.1034" fill="white"/>
<path d="M18.6075 88.8103C18.6075 88.8103 13.9593 88.723 12.3847 84.523C11.144 81.2138 13.7738 76.2954 15.9084 75.5442C17.6127 74.9444 19.2059 75.8067 19.768 77.1059C20.7146 79.2934 16.6987 80.9099 19.3675 82.8411C21.3401 84.2686 25.6656 79.3259 29.7705 81.0611C33.195 82.5088 34.8393 84.6329 34.6532 88.4946C34.4777 92.1331 31.52 96.0031 28.8277 96.902C26.2569 97.7604 25.5014 98.1306 24.146 98.7379C22.7585 99.3595 21.0904 100.271 20.0804 100.974C18.2443 102.251 16.6419 102.076 15.8305 101.092C14.9713 100.051 14.7021 98.5545 16.1572 96.7944C17.6122 95.0344 19.8226 94.1034 19.8226 94.1034" stroke="black" stroke-width="2.21875" stroke-linecap="round" stroke-linejoin="round"/>
<path d="M19.3099 88.5915C19.3099 88.5915 9.16722 90.8583 10.9449 95.4328C12.5918 99.6707 17.7581 95.0932 20.5958 93.5162" fill="white"/>
<path d="M19.3099 88.5915C19.3099 88.5915 9.16722 90.8583 10.9449 95.4328C12.5918 99.6707 17.7581 95.0932 20.5958 93.5162" stroke="black" stroke-width="2.21875" stroke-linecap="round" stroke-linejoin="round"/>
<path d="M29.2213 81.6298C28.7547 81.091 28.5454 79.1654 27.7103 77.6914C26.1604 74.9548 23.726 74.6211 21.9233 75.0896C20.0225 75.5834 19.6006 78.2054 20.2736 79.3257C21.1571 80.7963 22.4422 79.5951 22.8855 80.6969C23.1375 81.323 23.2664 81.9677 23.7841 82.9071" fill="white"/>
<path d="M29.2213 81.6298C28.7547 81.091 28.5454 79.1654 27.7103 77.6914C26.1604 74.9548 23.726 74.6211 21.9233 75.0896C20.0225 75.5834 19.6006 78.2054 20.2736 79.3257C21.1571 80.7963 22.4422 79.5951 22.8855 80.6969C23.1375 81.323 23.2664 81.9677 23.7841 82.9071" stroke="black" stroke-width="2.21875" stroke-linecap="round" stroke-linejoin="round"/>
<path d="M83.9426 114.407H75.7523C63.4318 114.407 53.4444 104.419 53.4444 92.0989V82.7269C53.4444 77.0636 58.0354 72.4725 63.6988 72.4725H95.9962C101.66 72.4725 106.251 77.0636 106.251 82.7269V92.0989C106.251 104.419 96.2631 114.407 83.9426 114.407Z" fill="white"/>
<path d="M83.9426 114.407H75.7523C63.4318 114.407 53.4444 104.419 53.4444 92.0989V82.7269C53.4444 77.0636 58.0354 72.4725 63.6988 72.4725H95.9962C101.66 72.4725 106.251 77.0636 106.251 82.7269V92.0989C106.251 104.419 96.2631 114.407 83.9426 114.407Z" stroke="black" stroke-width="2.21875" stroke-miterlimit="10"/>
<path d="M91.9646 104.008H67.7292C67.253 104.008 66.8672 103.622 66.8672 103.146V92.4452C66.8672 91.9691 67.253 91.5832 67.7292 91.5832H91.9646C92.4407 91.5832 92.8266 91.9691 92.8266 92.4452V103.146C92.8266 103.622 92.4407 104.008 91.9646 104.008Z" fill="white"/>
<path d="M91.9646 104.008H67.7292C67.253 104.008 66.8672 103.622 66.8672 103.146V92.4452C66.8672 91.9691 67.253 91.5832 67.7292 91.5832H91.9646C92.4407 91.5832 92.8266 91.9691 92.8266 92.4452V103.146C92.8266 103.622 92.4407 104.008 91.9646 104.008Z" stroke="black" stroke-width="1.775" stroke-miterlimit="10"/>
<path d="M63.5271 113.135L81.9748 121.678" stroke="black" stroke-width="15.5313" stroke-linecap="round" stroke-linejoin="round"/>
<path d="M63.5271 113.135L81.9748 121.678" stroke="white" stroke-width="11.0938" stroke-linecap="round" stroke-linejoin="round"/>
<path d="M69.455 109.397L63.8153 120.548" stroke="black" stroke-width="1.775"/>
<path d="M78.8028 113.573L73.3567 124.971" stroke="black" stroke-width="1.775"/>
<path d="M76.0443 134.742L81.5951 117.714C82.0221 116.405 83.4299 115.689 84.7397 116.116L90.5602 118.013C91.87 118.44 92.5856 119.848 92.1586 121.158L86.6078 138.186C85.657 141.103 82.5213 142.697 79.6043 141.746C76.6873 140.795 75.0934 137.659 76.0443 134.742Z" fill="white"/>
<path d="M76.0443 134.742L81.5951 117.714C82.0221 116.405 83.4299 115.689 84.7397 116.116L90.5602 118.013C91.87 118.44 92.5856 119.848 92.1586 121.158L86.6078 138.186C85.657 141.103 82.5213 142.697 79.6043 141.746C76.6873 140.795 75.0934 137.659 76.0443 134.742Z" stroke="black" stroke-width="2.21875" stroke-miterlimit="10"/>
<path d="M95.8362 114.734L76.8525 121.864" stroke="black" stroke-width="15.5313" stroke-linecap="round" stroke-linejoin="round"/>
<path d="M95.8362 114.734L76.8525 121.864" stroke="white" stroke-width="11.0938" stroke-linecap="round" stroke-linejoin="round"/>
<path d="M90.2212 110.561L94.9948 122.105" stroke="black" stroke-width="1.775"/>
<path d="M80.6142 114.019L85.1769 125.796" stroke="black" stroke-width="1.775"/>
<path d="M71.0277 138.129L66.4698 120.809C66.1192 119.477 66.915 118.113 68.2472 117.762L74.1676 116.204C75.4999 115.853 76.864 116.649 77.2146 117.981L81.7725 135.302C82.5533 138.269 80.7809 141.307 77.8139 142.088C74.8468 142.868 71.8085 141.096 71.0277 138.129Z" fill="white"/>
<path d="M71.0277 138.129L66.4698 120.809C66.1192 119.477 66.915 118.113 68.2472 117.762L74.1676 116.204C75.4999 115.853 76.864 116.649 77.2146 117.981L81.7725 135.302C82.5533 138.269 80.7809 141.307 77.8139 142.088C74.8468 142.868 71.8085 141.096 71.0277 138.129Z" stroke="black" stroke-width="2.21875" stroke-miterlimit="10"/>
<path d="M47.7619 48.0125C47.7619 48.0125 41.6548 44.8174 40.0602 46.7561C38.4655 48.6948 37.9263 52.3141 38.5498 58.7182C39.1734 65.1222 40.2285 71.2239 42.4469 71.2683C46.2441 71.3444 49.8477 69.4331 49.8477 69.4331L47.7619 48.0125Z" fill="white"/>
<path d="M47.7619 48.0125C47.7619 48.0125 41.6548 44.8174 40.0602 46.7561C38.4655 48.6948 37.9263 52.3141 38.5498 58.7182C39.1734 65.1222 40.2285 71.2239 42.4469 71.2683C46.2441 71.3444 49.8477 69.4331 49.8477 69.4331L47.7619 48.0125Z" stroke="black" stroke-width="2.21875" stroke-miterlimit="10"/>
<path d="M111.933 48.0137C111.933 48.0137 118.04 44.8186 119.635 46.7573C121.23 48.696 121.769 52.3153 121.145 58.7194C120.522 65.1234 119.467 71.2251 117.248 71.2695C113.451 71.3456 109.848 69.4343 109.848 69.4343L111.933 48.0137Z" fill="white"/>
<path d="M111.933 48.0137C111.933 48.0137 118.04 44.8186 119.635 46.7573C121.23 48.696 121.769 52.3153 121.145 58.7194C120.522 65.1234 119.467 71.2251 117.248 71.2695C113.451 71.3456 109.848 69.4343 109.848 69.4343L111.933 48.0137Z" stroke="black" stroke-width="2.21875" stroke-miterlimit="10"/>
<path d="M79.8472 18.5669C57.9925 18.5669 44.4581 34.6098 44.4581 54.3997C44.4581 77.8075 60.3024 87.57 79.8472 87.57C99.3919 87.57 115.236 77.8075 115.236 54.3997C115.236 34.6098 101.702 18.5669 79.8472 18.5669Z" fill="white"/>
<path d="M79.8472 18.5669C57.9925 18.5669 44.4581 34.6098 44.4581 54.3997C44.4581 77.8075 60.3024 87.57 79.8472 87.57C99.3919 87.57 115.236 77.8075 115.236 54.3997C115.236 34.6098 101.702 18.5669 79.8472 18.5669Z" stroke="black" stroke-width="2.21875" stroke-miterlimit="10"/>
<path d="M79.8476 81.0377C66.9234 81.0377 49.007 77.0439 49.007 57.0752C49.007 43.0444 56.4952 26.4564 79.8476 26.4564C103.2 26.4564 110.688 43.0444 110.688 57.0752C110.688 77.0439 92.7718 81.0377 79.8476 81.0377Z" fill="black"/>
<rect x="121.498" y="118.9" width="21.9333" height="16.6" rx="3.76667" fill="#D2E5CF"/>
<rect x="121.498" y="118.9" width="21.9333" height="16.6" rx="3.76667" stroke="black"/>
<path d="M131.991 123.846C132.19 123.462 132.739 123.462 132.938 123.846L133.744 125.4C133.819 125.544 133.955 125.646 134.114 125.677L135.81 126.011C136.216 126.091 136.38 126.583 136.103 126.891L134.888 128.242C134.785 128.357 134.737 128.511 134.756 128.664L134.955 130.276C135.011 130.734 134.497 131.043 134.119 130.778L132.771 129.832C132.587 129.703 132.342 129.703 132.158 129.832L130.81 130.778C130.432 131.043 129.918 130.734 129.975 130.276L130.173 128.664C130.192 128.511 130.144 128.357 130.041 128.242L128.826 126.891C128.549 126.583 128.713 126.091 129.119 126.011L130.815 125.677C130.974 125.646 131.111 125.544 131.185 125.4L131.991 123.846Z" fill="#009535" stroke="#009535" stroke-width="0.8" stroke-linecap="round" stroke-linejoin="round"/>
<defs>
<clipPath id="clip0_2_1785">
<rect width="12.1046" height="12.1046" fill="white" transform="translate(129.051 85.0561)"/>
</clipPath>
</defs>
</svg>
