<svg width="160" height="160" viewBox="0 0 160 160" fill="none" xmlns="http://www.w3.org/2000/svg">
<mask id="mask0_2_552" style="mask-type:alpha" maskUnits="userSpaceOnUse" x="23" y="27" width="118" height="97">
<path fill-rule="evenodd" clip-rule="evenodd" d="M130.3 114.661C127.894 123.596 106.271 123.319 83.164 123.023C78.9704 122.969 74.7279 122.915 70.5426 122.915C34.4646 122.915 23.1762 106.249 23.1763 79.8278C23.1763 53.4062 47.7322 16.2025 85.2066 30.0546C89.7336 31.728 93.3869 33.6195 96.3525 35.6998C98.8643 35.1295 101.914 35.0995 105.567 35.7095C151.383 43.362 143.986 98.1436 130.3 114.661Z" fill="#D2E5CF"/>
</mask>
<g mask="url(#mask0_2_552)">
<rect width="189.496" height="168.594" transform="matrix(-1 0 0 1 170.121 -10.562)" fill="#D2E5CF"/>
</g>
<rect x="131.486" y="85.6289" width="23.0138" height="17.4292" rx="3.96769" fill="#ECECF0"/>
<rect x="131.486" y="85.6289" width="23.0138" height="17.4292" rx="3.96769" stroke="#16161A"/>
<g clip-path="url(#clip0_2_552)">
<path fill-rule="evenodd" clip-rule="evenodd" d="M136.851 94.3439C136.851 90.9512 139.601 88.2009 142.994 88.2009C146.386 88.2009 149.137 90.9512 149.137 94.3439C149.137 97.7367 146.386 100.487 142.994 100.487C139.601 100.487 136.851 97.7367 136.851 94.3439Z" fill="#AFAFB5"/>
<path fill-rule="evenodd" clip-rule="evenodd" d="M145.959 92.1354C146.178 92.3535 146.178 92.7071 145.959 92.9252L142.493 96.5552C142.275 96.7733 141.921 96.7733 141.703 96.5552L140.028 94.8798C139.81 94.6617 139.81 94.3081 140.028 94.09C140.246 93.8719 140.6 93.8719 140.818 94.09L142.098 95.3705L145.17 92.1354C145.388 91.9173 145.741 91.9173 145.959 92.1354Z" fill="#E5E5EB"/>
</g>
<rect x="0.5" y="45.5312" width="45.3523" height="25.8062" rx="3.96769" fill="#ECECF0"/>
<rect x="0.5" y="45.5312" width="45.3523" height="25.8062" rx="3.96769" stroke="#16161A"/>
<ellipse cx="6.33018" cy="51.3605" rx="1.86247" ry="1.86154" fill="#54CD83"/>
<rect x="11.1694" y="50.059" width="29.5985" height="2.79231" rx="1.11692" fill="#D4D4D9"/>
<ellipse cx="6.33018" cy="58.4343" rx="1.86247" ry="1.86154" fill="#838DEB"/>
<rect x="11.7276" y="57.317" width="17.3123" height="2.79231" rx="1.11692" fill="#D4D4D9"/>
<ellipse cx="6.33018" cy="65.5082" rx="1.86247" ry="1.86154" fill="#64B5F6"/>
<rect x="11.5435" y="64.2071" width="24.5723" height="2.79231" rx="1.11692" fill="#D4D4D9"/>
<rect x="127.875" y="125.064" width="24.3935" height="18.488" rx="4.22437" fill="#D2E5CF"/>
<rect x="127.875" y="125.064" width="24.3935" height="18.488" rx="4.22437" stroke="#16161A"/>
<path d="M139.548 130.595C139.768 130.17 140.376 130.17 140.596 130.595L141.488 132.315C141.571 132.475 141.722 132.588 141.898 132.623L143.776 132.992C144.225 133.081 144.407 133.626 144.101 133.967L142.756 135.463C142.641 135.59 142.588 135.76 142.609 135.93L142.829 137.714C142.891 138.222 142.323 138.564 141.904 138.27L140.411 137.223C140.207 137.08 139.936 137.08 139.733 137.223L138.24 138.27C137.821 138.564 137.252 138.222 137.315 137.714L137.535 135.93C137.556 135.76 137.502 135.59 137.388 135.463L136.043 133.967C135.736 133.626 135.918 133.081 136.368 132.992L138.245 132.623C138.421 132.588 138.572 132.475 138.655 132.315L139.548 130.595Z" fill="#009535" stroke="#009535" stroke-width="0.885819" stroke-linecap="round" stroke-linejoin="round"/>
<path d="M140.647 130.571L114.591 124.555C112.168 123.996 110.657 121.578 111.216 119.155L116.556 96.0249C117.116 93.6019 119.533 92.0911 121.956 92.6505L148.012 98.666C150.436 99.2254 151.946 101.643 151.387 104.066L146.047 127.196C145.488 129.619 143.07 131.13 140.647 130.571Z" fill="white"/>
<path d="M140.647 130.571L114.591 124.555C112.168 123.996 110.657 121.578 111.216 119.155L116.556 96.0249C117.116 93.6019 119.533 92.0911 121.956 92.6505L148.012 98.666C150.436 99.2254 151.946 101.643 151.387 104.066L146.047 127.196C145.488 129.619 143.07 131.13 140.647 130.571Z" stroke="#16161A" stroke-width="1.9375" stroke-miterlimit="10"/>
<path d="M87.9436 111.888C79.3748 102.178 86.1348 95.3543 94.5868 97.2911" stroke="#16161A" stroke-width="13.5625" stroke-linecap="round" stroke-linejoin="round"/>
<path d="M87.9436 111.888C79.3748 102.178 86.1348 95.3543 94.5868 97.2911" stroke="white" stroke-width="9.6875" stroke-linecap="round" stroke-linejoin="round"/>
<path d="M78.1359 102.982C78.1359 102.982 84.0074 97.0845 90.0862 104.787" stroke="#16161A" stroke-width="1.9375"/>
<path d="M85.7426 92.1408C85.7426 92.1408 92.0935 94.5993 91.6176 102.857" stroke="#16161A" stroke-width="1.9375"/>
<path d="M100.965 124.044C98.4283 124.663 95.2773 124.956 92.0449 123.878C89.1403 122.908 86.3107 121.089 83.505 117.244C82.3019 115.596 82.3724 113.517 83.5756 111.868C85.2016 109.641 86.9317 109.095 88.7761 108.27C90.4669 107.513 93.2307 107.784 94.903 108.581C96.8703 109.519 99.3288 112.571 100.013 113.891C100.454 114.741 98.935 116.224 97.9785 116.277C97.0635 116.327 93.9171 113.115 93.1505 113.316C92.3555 113.524 91.988 114.658 91.988 114.658C91.988 114.658 94.2363 118.611 95.8023 119.321C97.904 120.273 99.8556 118.789 101.486 120.196C102.596 121.153 102.388 123.696 100.965 124.044Z" fill="white"/>
<path d="M100.965 124.044C98.4283 124.663 95.2773 124.956 92.0449 123.878C89.1403 122.908 86.3107 121.089 83.505 117.244C82.3019 115.596 82.3724 113.517 83.5756 111.868C85.2016 109.641 86.9317 109.095 88.7761 108.27C90.4669 107.513 93.2307 107.784 94.903 108.581C96.8703 109.519 99.3288 112.571 100.013 113.891C100.454 114.741 98.935 116.224 97.9785 116.277C97.0635 116.327 93.9171 113.115 93.1505 113.316C92.3555 113.524 91.988 114.658 91.988 114.658C91.988 114.658 94.2363 118.611 95.8023 119.321C97.904 120.273 99.8556 118.789 101.486 120.196C102.596 121.153 102.388 123.696 100.965 124.044Z" stroke="#16161A" stroke-width="1.9375" stroke-linecap="round" stroke-linejoin="round"/>
<path d="M121.074 121.024C122.333 125.384 123.205 132.455 123.205 139.818" stroke="#16161A" stroke-width="13.5625" stroke-linecap="round" stroke-linejoin="round"/>
<path d="M121.074 121.024C122.333 125.384 123.205 132.455 123.205 139.818" stroke="white" stroke-width="9.6875" stroke-linecap="round" stroke-linejoin="round"/>
<path d="M128.75 131.292L116.931 132.067" stroke="#16161A" stroke-width="1.55"/>
<path d="M133.587 149.23H117.947C116.744 149.23 115.769 148.255 115.769 147.052V141.706C115.769 140.503 116.744 139.528 117.947 139.528H133.587C136.266 139.528 138.438 141.7 138.438 144.379C138.438 147.058 136.266 149.23 133.587 149.23Z" fill="white"/>
<path d="M133.586 149.23H117.947C116.744 149.23 115.769 148.255 115.769 147.052V141.706C115.769 140.503 116.744 139.528 117.947 139.528H133.586C136.266 139.528 138.438 141.7 138.438 144.379C138.438 147.058 136.266 149.23 133.586 149.23Z" stroke="#16161A" stroke-width="1.9375" stroke-miterlimit="10"/>
<path d="M100.778 121.024C99.5184 125.383 98.6465 132.455 98.6465 139.817" stroke="#16161A" stroke-width="13.5625" stroke-linecap="round" stroke-linejoin="round"/>
<path d="M100.778 121.024C99.5184 125.383 98.6465 132.455 98.6465 139.817" stroke="white" stroke-width="9.6875" stroke-linecap="round" stroke-linejoin="round"/>
<path d="M93.1002 131.292L104.919 132.067" stroke="#16161A" stroke-width="1.55"/>
<path d="M87.9967 149.23H103.636C104.839 149.23 105.814 148.255 105.814 147.052V141.706C105.814 140.503 104.839 139.528 103.636 139.528H87.9967C85.3175 139.528 83.1456 141.7 83.1456 144.379C83.1456 147.058 85.3175 149.23 87.9967 149.23Z" fill="white"/>
<path d="M87.9967 149.23H103.636C104.839 149.23 105.814 148.255 105.814 147.052V141.706C105.814 140.503 104.839 139.528 103.636 139.528H87.9967C85.3175 139.528 83.1456 141.7 83.1456 144.379C83.1456 147.058 85.3175 149.23 87.9967 149.23Z" stroke="#16161A" stroke-width="1.9375" stroke-miterlimit="10"/>
<path d="M120.673 128.147L96.7919 122.634C91.2139 121.346 87.7359 115.78 89.0237 110.202L92.1396 96.6476C93.2521 91.8289 98.0603 88.8244 102.879 89.9369L130.359 96.2812C135.178 97.3937 138.183 102.202 137.07 107.021L134.15 119.726C132.754 125.773 126.72 129.543 120.673 128.147Z" fill="white"/>
<path d="M120.673 128.147L96.7919 122.634C91.2139 121.346 87.7359 115.78 89.0237 110.202L92.1396 96.6476C93.2521 91.8289 98.0603 88.8244 102.879 89.9369L130.359 96.2812C135.178 97.3937 138.183 102.202 137.07 107.021L134.15 119.726C132.754 125.773 126.72 129.543 120.673 128.147Z" stroke="#16161A" stroke-width="1.9375" stroke-miterlimit="10"/>
<path d="M113.616 118.762L92.995 114.002C92.5898 113.908 92.3373 113.504 92.4309 113.099L94.5329 103.994C94.6265 103.589 95.0306 103.336 95.4357 103.43L116.057 108.19C116.462 108.284 116.714 108.688 116.621 109.093L114.519 118.198C114.425 118.603 114.021 118.856 113.616 118.762Z" fill="white"/>
<path d="M113.616 118.762L92.995 114.002C92.5898 113.908 92.3373 113.504 92.4309 113.099L94.5329 103.994C94.6265 103.589 95.0306 103.336 95.4357 103.43L116.057 108.19C116.462 108.284 116.714 108.688 116.621 109.093L114.519 118.198C114.425 118.603 114.021 118.856 113.616 118.762Z" stroke="#16161A" stroke-width="1.55" stroke-miterlimit="10"/>
<path d="M108.155 115.295L113.084 116.433L113.339 115.327L110.021 114.561L110.028 114.53L114.269 110.895L114.469 110.028L109.704 108.928L109.45 110.03L112.618 110.761L112.61 110.796L108.356 114.424L108.155 115.295Z" fill="#369735"/>
<path d="M107.457 113.969L104.665 113.325L105.883 108.046L104.547 107.738L103.073 114.122L107.202 115.075L107.457 113.969Z" fill="#369735"/>
<path d="M98.4243 110.521L97.3044 108.729L99.1138 107.598" stroke="#369735" stroke-width="0.76725" stroke-miterlimit="10"/>
<path d="M98.8145 112.024L100.607 110.904L99.4761 109.095" stroke="#369735" stroke-width="0.76725" stroke-miterlimit="10"/>
<path d="M102.237 110.629C101.812 112.471 99.9743 113.619 98.1328 113.194C96.2913 112.769 95.143 110.931 95.5682 109.09C95.9934 107.248 97.8309 106.1 99.6724 106.525C101.514 106.95 102.662 108.788 102.237 110.629Z" stroke="#369735" stroke-width="0.76725"/>
<path d="M101.862 62.5585C101.862 62.5585 97.6949 58.216 95.836 59.3776C93.977 60.5392 92.5245 63.3854 91.2606 68.8602C89.9966 74.3349 89.174 79.6793 90.9981 80.3327C94.1203 81.4512 97.6347 80.8706 97.6347 80.8706L101.862 62.5585Z" fill="white"/>
<path d="M101.862 62.5585C101.862 62.5585 97.6949 58.216 95.836 59.3776C93.977 60.5392 92.5245 63.3854 91.2606 68.8602C89.9966 74.3349 89.174 79.6793 90.9981 80.3327C94.1203 81.4512 97.6347 80.8706 97.6347 80.8706L101.862 62.5585Z" stroke="#16161A" stroke-width="1.9375" stroke-miterlimit="10"/>
<path d="M123.432 44.274C101.279 40.0542 91.2882 51.2856 88.7367 68.3776C85.3939 90.7714 94.3024 99.9866 109.878 102.986C126.637 106.213 141.907 101.631 146.505 81.7144C150.392 64.8759 142.18 47.845 123.432 44.274Z" fill="white"/>
<path d="M123.432 44.274C101.279 40.0542 91.2882 51.2856 88.7367 68.3776C85.3939 90.7714 94.3024 99.9866 109.878 102.986C126.637 106.213 141.907 101.631 146.505 81.7144C150.392 64.8759 142.18 47.845 123.432 44.274Z" stroke="#16161A" stroke-width="1.9375" stroke-miterlimit="10"/>
<path d="M103.968 97.1463C92.9711 94.6075 82.5625 86.2391 85.3818 71.2805C87.9299 57.7614 94.82 46.1181 114.689 50.7053C134.559 55.2926 137.672 70.8776 134.916 82.8158C130.993 99.8064 114.964 99.685 103.968 97.1463Z" fill="#16161A"/>
<path d="M142.051 70.5941C147.42 71.8337 150.748 77.276 149.485 82.7498C148.221 88.2236 142.844 91.6561 137.474 90.4164C132.105 89.1767 129.648 83.8362 130.911 78.3624C132.175 72.8886 136.681 69.3544 142.051 70.5941Z" fill="white"/>
<path d="M142.051 70.5941C147.42 71.8337 150.748 77.276 149.485 82.7498C148.221 88.2236 142.844 91.6561 137.474 90.4164C132.105 89.1767 129.648 83.8362 130.911 78.3624C132.175 72.8886 136.681 69.3544 142.051 70.5941Z" stroke="#16161A" stroke-width="1.9375"/>
<path d="M144.286 72.1056C147.428 72.7651 150.748 77.277 149.484 82.7508C148.22 88.2246 142.774 91.144 139.826 90.5629C135.966 89.8021 134.047 84.158 135.18 79.2497C136.03 75.5672 139.545 71.1104 144.286 72.1056Z" fill="white"/>
<path d="M144.286 72.1056C147.428 72.7651 150.748 77.277 149.484 82.7508C148.22 88.2246 142.774 91.144 139.826 90.5629C135.966 89.8021 134.047 84.158 135.18 79.2497C136.03 75.5672 139.545 71.1104 144.286 72.1056Z" stroke="#16161A" stroke-width="1.9375"/>
<path d="M74.5306 62.0685L58.4474 103.245C58.4474 103.245 80.831 113.193 105.529 115.451C139.435 118.551 140.45 108.903 138.079 104.02C134.785 97.239 127.616 103.633 101.654 93.5577C78.8253 84.6989 74.5306 62.0685 74.5306 62.0685Z" fill="white"/>
<path d="M74.5306 62.0685L58.4474 103.245C58.4474 103.245 80.831 113.193 105.529 115.451C139.435 118.551 140.45 108.903 138.079 104.02C134.785 97.239 127.616 103.633 101.654 93.5577C78.8253 84.6989 74.5306 62.0685 74.5306 62.0685Z" stroke="#16161A" stroke-width="1.9375" stroke-linecap="round" stroke-linejoin="round"/>
<path d="M91.5501 88.5716C91.5501 88.5716 95.9095 104.168 83.5095 111.047L91.5501 88.5716Z" fill="white"/>
<path d="M91.5501 88.5716C91.5501 88.5716 95.9095 104.168 83.5095 111.047" stroke="#16161A" stroke-width="1.9375" stroke-linecap="round"/>
<path d="M109.181 96.419C109.181 96.419 115.188 105.816 107.728 115.31L109.181 96.419Z" fill="white"/>
<path d="M109.181 96.419C109.181 96.419 115.188 105.816 107.728 115.31" stroke="#16161A" stroke-width="1.9375" stroke-linecap="round"/>
<path d="M126.716 100.293C126.716 100.293 132.916 106.396 126.813 115.018L126.716 100.293Z" fill="white"/>
<path d="M126.716 100.293C126.716 100.293 132.916 106.396 126.813 115.018" stroke="#16161A" stroke-width="1.9375" stroke-linecap="round"/>
<path d="M60.3511 42.8677C64.5777 23.5264 72.4686 16.7218 78.7713 16.9104C86.7642 17.1497 92.2027 28.6357 84.375 40.062C76.3692 51.7483 77.9179 73.358 77.9179 73.358C77.9179 73.358 80.863 96.4036 62.8708 104.589C57.0353 103.528 42.8176 99.7555 36.7624 94.1078C33.4494 98.6943 23.3392 90.8816 18.2161 85.1206C14.1994 80.6037 12.4473 71.8569 18.2665 66.0356C14.1607 60.1261 16.5866 49.0369 23.8358 46.8249C20.4732 41.7517 23.6323 35.1098 25.1512 33.1405C28.2512 29.1211 35.4803 27.8366 47.4016 34.6222C56.7569 39.9473 63.8748 46.9769 63.8748 46.9769" fill="white"/>
<path d="M60.3511 42.8677C64.5777 23.5264 72.4686 16.7218 78.7713 16.9104C86.7642 17.1497 92.2027 28.6357 84.375 40.062C76.3692 51.7483 77.9179 73.358 77.9179 73.358C77.9179 73.358 80.863 96.4036 62.8708 104.589C57.0353 103.528 42.8176 99.7555 36.7624 94.1078C33.4494 98.6943 23.3392 90.8816 18.2161 85.1205C14.1994 80.6037 12.4472 71.8569 18.2665 66.0356C14.1607 60.1261 16.5866 49.0369 23.8358 46.8249C20.4732 41.7517 23.6323 35.1098 25.1512 33.1405C28.2512 29.1211 35.4803 27.8366 47.4016 34.6222C56.7569 39.9473 63.8748 46.9769 63.8748 46.9769" stroke="#16161A" stroke-width="1.9375" stroke-linecap="round" stroke-linejoin="round"/>
<defs>
<clipPath id="clip0_2_552">
<rect width="13.4031" height="13.4031" fill="white" transform="translate(136.292 87.642)"/>
</clipPath>
</defs>
</svg>
