<svg width="160" height="160" viewBox="0 0 160 160" fill="none" xmlns="http://www.w3.org/2000/svg">
<mask id="mask0_2_816" style="mask-type:alpha" maskUnits="userSpaceOnUse" x="23" y="27" width="118" height="97">
<path fill-rule="evenodd" clip-rule="evenodd" d="M130.3 115.161C127.894 124.096 106.271 123.819 83.164 123.523C78.9704 123.469 74.7279 123.415 70.5426 123.415C34.4646 123.415 23.1762 106.749 23.1763 80.3278C23.1763 53.9062 47.7322 16.7025 85.2066 30.5546C89.7336 32.228 93.3869 34.1195 96.3525 36.1998C98.8643 35.6295 101.914 35.5995 105.567 36.2095C151.383 43.862 143.986 98.6436 130.3 115.161Z" fill="#D2E5CF"/>
</mask>
<g mask="url(#mask0_2_816)">
<rect width="189.496" height="168.594" transform="matrix(-1 0 0 1 170.121 -10.062)" fill="#D2E5CF"/>
</g>
<rect x="131.486" y="86.1289" width="23.0138" height="17.4292" rx="3.96769" fill="#ECECF0"/>
<rect x="131.486" y="86.1289" width="23.0138" height="17.4292" rx="3.96769" stroke="#16161A"/>
<g clip-path="url(#clip0_2_816)">
<path fill-rule="evenodd" clip-rule="evenodd" d="M136.851 94.8439C136.851 91.4512 139.601 88.7009 142.994 88.7009C146.386 88.7009 149.137 91.4512 149.137 94.8439C149.137 98.2367 146.386 100.987 142.994 100.987C139.601 100.987 136.851 98.2367 136.851 94.8439Z" fill="#AFAFB5"/>
<path fill-rule="evenodd" clip-rule="evenodd" d="M145.959 92.6354C146.178 92.8535 146.178 93.2071 145.959 93.4252L142.493 97.0552C142.275 97.2733 141.921 97.2733 141.703 97.0552L140.028 95.3798C139.81 95.1617 139.81 94.8081 140.028 94.59C140.246 94.3719 140.6 94.3719 140.818 94.59L142.098 95.8705L145.17 92.6354C145.388 92.4173 145.741 92.4173 145.959 92.6354Z" fill="#E5E5EB"/>
</g>
<rect x="0.5" y="46.0312" width="45.3523" height="25.8062" rx="3.96769" fill="#ECECF0"/>
<rect x="0.5" y="46.0312" width="45.3523" height="25.8062" rx="3.96769" stroke="#16161A"/>
<ellipse cx="6.33018" cy="51.8605" rx="1.86247" ry="1.86154" fill="#54CD83"/>
<rect x="11.1694" y="50.559" width="29.5985" height="2.79231" rx="1.11692" fill="#D4D4D9"/>
<ellipse cx="6.33018" cy="58.9343" rx="1.86247" ry="1.86154" fill="#838DEB"/>
<rect x="11.7276" y="57.817" width="17.3123" height="2.79231" rx="1.11692" fill="#D4D4D9"/>
<ellipse cx="6.33018" cy="66.0082" rx="1.86247" ry="1.86154" fill="#64B5F6"/>
<rect x="11.5435" y="64.7071" width="24.5723" height="2.79231" rx="1.11692" fill="#D4D4D9"/>
<rect x="127.875" y="125.564" width="24.3935" height="18.488" rx="4.22437" fill="#D2E5CF"/>
<rect x="127.875" y="125.564" width="24.3935" height="18.488" rx="4.22437" stroke="#16161A"/>
<path d="M139.548 131.095C139.768 130.67 140.376 130.67 140.596 131.095L141.488 132.815C141.571 132.975 141.722 133.088 141.898 133.123L143.776 133.492C144.225 133.581 144.407 134.126 144.101 134.467L142.756 135.963C142.641 136.09 142.588 136.26 142.609 136.43L142.829 138.214C142.891 138.722 142.323 139.064 141.904 138.77L140.411 137.723C140.207 137.58 139.936 137.58 139.733 137.723L138.24 138.77C137.821 139.064 137.252 138.722 137.315 138.214L137.535 136.43C137.556 136.26 137.502 136.09 137.388 135.963L136.043 134.467C135.736 134.126 135.918 133.581 136.368 133.492L138.245 133.123C138.421 133.088 138.572 132.975 138.655 132.815L139.548 131.095Z" fill="#009535" stroke="#009535" stroke-width="0.885819" stroke-linecap="round" stroke-linejoin="round"/>
<path d="M19.0992 97.168C22.6176 95.4611 30.7859 91.5895 42.0812 86.8012" stroke="#F3BA2D" stroke-width="1.49531" stroke-linecap="round" stroke-linejoin="round"/>
<path d="M75.1573 73.0272L53.0386 73.6686C51.114 73.7213 49.5112 72.2038 49.4585 70.2793L48.9557 51.9082C48.903 49.9837 50.4205 48.3808 52.345 48.3281L74.4637 47.6867C76.3882 47.634 77.9911 49.1515 78.0438 51.076L78.5466 69.4471C78.5993 71.3717 77.0818 72.9745 75.1573 73.0272Z" fill="white"/>
<path d="M75.1573 73.0272L53.0386 73.6686C51.114 73.7213 49.5112 72.2038 49.4585 70.2793L48.9557 51.9082C48.903 49.9837 50.4205 48.3808 52.345 48.3281L74.4637 47.6867C76.3882 47.634 77.9911 49.1515 78.0438 51.076L78.5466 69.4471C78.5993 71.3717 77.0818 72.9745 75.1573 73.0272Z" stroke="black" stroke-width="1.49531" stroke-miterlimit="10"/>
<path d="M106.143 45.7168C104.037 52.5126 98.0142 56.8936 91.0751 54.1507" stroke="black" stroke-width="10.4672" stroke-linecap="round" stroke-linejoin="round"/>
<path d="M106.143 45.7168C104.037 52.5126 98.0142 56.8936 91.0751 54.1507" stroke="white" stroke-width="7.47656" stroke-linecap="round" stroke-linejoin="round"/>
<path d="M100.394 47.8544C100.394 47.8544 101.212 52.7936 106.968 54.2603" stroke="black" stroke-width="1.49531"/>
<path d="M96.1569 50.6819C96.1569 50.6819 97.146 55.8273 101.542 57.8726" stroke="black" stroke-width="1.49531"/>
<path d="M103.633 74.6957C98.3888 70.2345 94.494 68.6027 86.4198 68.3973" stroke="black" stroke-width="10.4672"/>
<path d="M103.633 74.6957C98.3888 70.2345 94.494 68.6027 86.4198 68.3973" stroke="white" stroke-width="7.47656"/>
<path d="M95.2813 64.7492L93.3924 73.479" stroke="black" stroke-width="1.49531"/>
<path d="M86.5728 64.876L86.3663 72.0363" stroke="white" stroke-width="1.19625"/>
<path d="M112.283 69.7842L105.608 79.8861C105.095 80.6631 104.049 80.8768 103.272 80.3633L99.8188 78.0817C99.0417 77.5682 98.8281 76.5222 99.3415 75.7451L106.016 65.6432C107.16 63.9127 109.49 63.4368 111.22 64.5803C112.951 65.7237 113.427 68.0536 112.283 69.7842Z" fill="white"/>
<path d="M112.283 69.7842L105.608 79.8861C105.095 80.6631 104.049 80.8768 103.272 80.3633L99.8188 78.0817C99.0417 77.5682 98.8281 76.5222 99.3415 75.7451L106.016 65.6432C107.16 63.9127 109.49 63.4368 111.22 64.5803C112.951 65.7237 113.427 68.0536 112.283 69.7842Z" stroke="black" stroke-width="1.49531" stroke-miterlimit="10"/>
<path d="M85.1212 74.5218L73.2916 75.0338C64.4886 74.7647 62.3399 71.4621 62.1858 65.8327L61.8401 53.9518C61.7353 50.1245 64.753 46.9369 68.5803 46.8321L84.4839 46.3838C91.8172 46.1831 94.6224 52.0689 94.7272 55.8963L94.8885 62.5302C95.0858 69.7405 94.3113 72.8502 85.1212 74.5218Z" fill="white"/>
<path d="M85.1212 74.5218L73.2916 75.0338C64.4886 74.7647 62.3399 71.4621 62.1858 65.8327L61.8401 53.9518C61.7353 50.1245 64.753 46.9369 68.5803 46.8321L84.4839 46.3838C91.8172 46.1831 94.6224 52.0689 94.7272 55.8963L94.8885 62.5302C95.0858 69.7405 94.3113 72.8502 85.1212 74.5218Z" stroke="black" stroke-width="1.49531" stroke-miterlimit="10"/>
<path d="M119.553 128.961C109.225 148.341 85.1387 155.68 65.7559 145.35C46.3752 135.021 39.0365 110.934 49.3671 91.5536C59.695 72.1715 83.7831 64.8341 103.164 75.1634C122.547 85.4941 129.883 109.579 119.553 128.961Z" fill="#E4E4E4"/>
<path d="M119.553 128.961C109.225 148.341 85.1387 155.68 65.7559 145.35C46.3752 135.021 39.0365 110.934 49.3671 91.5536C59.695 72.1715 83.7831 64.8341 103.164 75.1634C122.547 85.4941 129.883 109.579 119.553 128.961Z" stroke="black" stroke-width="1.38466"/>
<g style="mix-blend-mode:multiply" opacity="0.4">
<g style="mix-blend-mode:multiply" opacity="0.4">
<path d="M73.9967 71.8855C86.4991 68.8457 100.22 72.7425 109.213 83.1461C122.014 97.9549 120.384 120.335 105.575 133.136C90.7668 145.935 68.3865 144.307 55.5862 129.498C42.897 114.818 44.3902 92.699 58.8448 79.8465C58.7142 79.9549 58.5844 80.0618 58.4559 80.1737C41.84 94.5345 40.0121 119.648 54.375 136.264C68.7366 152.879 93.8497 154.707 110.465 140.345C127.081 125.982 128.907 100.869 114.546 84.2552C104.207 72.2918 88.2979 67.997 73.9967 71.8855Z" fill="white"/>
</g>
</g>
<g style="mix-blend-mode:screen" opacity="0.3">
<g style="mix-blend-mode:screen" opacity="0.3">
<path d="M105.175 85.9994C114.358 98.5164 110.666 116.831 96.9324 126.905C83.1959 136.981 64.6181 135.003 55.4361 122.486C46.2548 109.97 49.9467 91.6547 63.6833 81.5782C77.417 71.5038 95.9949 73.4838 105.175 85.9994Z" fill="white"/>
</g>
</g>
<g style="mix-blend-mode:screen" opacity="0.5">
<g style="mix-blend-mode:screen" opacity="0.5">
<path d="M88.6773 78.2585C94.266 84.7208 91.4359 96.3196 82.3602 104.164C73.2838 112.01 61.3988 113.129 55.8108 106.666C50.2243 100.203 53.0537 88.6037 62.1294 80.7594C71.2044 72.9157 83.0922 71.7955 88.6773 78.2585Z" fill="white"/>
</g>
</g>
<g opacity="0.4">
<path opacity="0.4" d="M59.0008 130.681C59.5272 128.718 63.5386 128.707 66.8931 131.175C70.2482 133.641 69.1627 137.195 66.8931 137.786C64.6241 138.379 57.6194 135.813 59.0008 130.681Z" fill="#868686"/>
</g>
<g opacity="0.4">
<path opacity="0.4" d="M96.0049 138.803C95.6736 137.038 97.5154 134.789 100.476 134.131C103.438 133.473 106.202 134.461 106.661 137.157C107.123 139.854 103.873 142.42 101.32 141.697C98.7669 140.974 96.3987 140.907 96.0049 138.803Z" fill="#868686"/>
</g>
<g opacity="0.4">
<path opacity="0.4" d="M66.862 141.821C67.2774 140.343 70.5478 141.369 70.579 143.376C70.611 145.38 66.4016 143.458 66.862 141.821Z" fill="#868686"/>
</g>
<g opacity="0.4">
<path opacity="0.4" d="M76.5846 142.423C77.2124 143.123 79.0987 143.855 79.4925 141.823C79.8869 139.792 74.5962 140.199 76.5846 142.423Z" fill="#868686"/>
</g>
<g opacity="0.4">
<path opacity="0.4" d="M90.6772 145.119C92.0856 145.286 94.0642 145.372 94.3615 143.475C94.6587 141.578 90.4139 141.69 89.493 142.68C88.5721 143.669 89.4284 144.971 90.6772 145.119Z" fill="#868686"/>
</g>
<g opacity="0.4">
<path opacity="0.4" d="M111.2 100.981C112.114 101.702 114.885 101.902 115.344 99.402C115.803 96.9011 112.712 95.783 111.2 96.3101C109.687 96.8359 108.372 98.7437 111.2 100.981Z" fill="#868686"/>
</g>
<g opacity="0.4">
<path opacity="0.4" d="M106.707 88.3496C107.728 89.2545 111.557 89.7295 112.465 88.0863C113.373 86.4404 110.968 84.1645 107.846 83.9423C104.724 83.7172 103.066 85.1257 106.707 88.3496Z" fill="#868686"/>
</g>
<g opacity="0.4">
<path opacity="0.4" d="M83.1379 83.0316C84.4018 83.9248 88.1105 83.3497 88.4383 81.2454C88.7675 79.1404 85.1373 78.6667 83.1379 79.3966C81.137 80.1252 80.8238 81.3968 83.1379 83.0316Z" fill="#868686"/>
</g>
<g opacity="0.4">
<path opacity="0.4" d="M74.2958 77.8213C75.6931 78.4658 77.7364 78.2817 77.8253 77.2948C77.9135 76.308 76.5988 75.7162 75.1507 75.8475C73.7034 75.9781 72.5852 77.0309 74.2958 77.8213Z" fill="#868686"/>
</g>
<g opacity="0.4">
<path opacity="0.4" d="M56.3338 86.4375C56.5178 85.4305 57.5839 86.2417 57.6505 86.7674C57.7165 87.2932 56.0712 87.8856 56.3338 86.4375Z" fill="#868686"/>
</g>
<g opacity="0.4">
<path opacity="0.4" d="M58.8214 99.7316C58.4957 98.867 59.8888 99.0732 59.9555 99.7316C60.0208 100.389 59.0707 100.389 58.8214 99.7316Z" fill="#868686"/>
</g>
<g opacity="0.4">
<path opacity="0.4" d="M55.2179 120.384C55.6777 121.175 57.0208 120.781 56.9097 119.662C56.7972 118.544 54.7582 119.595 55.2179 120.384Z" fill="#868686"/>
</g>
<g opacity="0.4">
<path opacity="0.4" d="M53.1796 129.263C53.3685 129.59 54.3776 129.947 54.4367 128.851C54.4957 127.754 52.7199 128.47 53.1796 129.263Z" fill="#868686"/>
</g>
<g opacity="0.4">
<path opacity="0.4" d="M85.7906 147.95C86.4928 148.314 87.1727 147.655 86.9247 146.865C86.6789 146.077 84.3593 147.212 85.7906 147.95Z" fill="#868686"/>
</g>
<g opacity="0.4">
<path opacity="0.4" d="M82.5373 147.652C83.0054 147.143 81.7469 146.943 81.2532 147.323C80.7608 147.701 81.9442 148.293 82.5373 147.652Z" fill="#868686"/>
</g>
<g opacity="0.4">
<path opacity="0.4" d="M78.7835 145.924C79.3384 146.285 79.7704 146.072 79.8204 145.579C79.869 145.086 77.7966 145.282 78.7835 145.924Z" fill="#868686"/>
</g>
<g opacity="0.4">
<path opacity="0.4" d="M84.1623 135.567C84.0283 135.244 85.4548 135.073 85.3256 135.567C85.1965 136.059 84.4089 136.158 84.1623 135.567Z" fill="#868686"/>
</g>
<g opacity="0.4">
<path opacity="0.4" d="M106.706 117.658C106.71 116.918 107.897 116.967 107.945 117.658C107.992 118.35 106.699 118.399 106.706 117.658Z" fill="#868686"/>
</g>
<g opacity="0.4">
<path opacity="0.4" d="M113.077 105.864C113.028 105.125 114.458 105.074 114.508 105.864C114.556 106.653 113.125 106.605 113.077 105.864Z" fill="#868686"/>
</g>
<g opacity="0.4">
<path opacity="0.4" d="M102.565 79.9566C102.458 79.1002 103.452 79.1176 103.6 79.9566C103.749 80.7948 102.615 80.3733 102.565 79.9566Z" fill="#868686"/>
</g>
<g opacity="0.4">
<path opacity="0.4" d="M95.6586 79.6637C94.8835 79.1165 96.051 78.6317 96.5455 79.0734C97.0399 79.5151 96.4975 80.2561 95.6586 79.6637Z" fill="#868686"/>
</g>
<g opacity="0.4">
<path opacity="0.4" d="M89.0964 76.5584C88.6019 76.3119 89.2422 75.3541 89.8853 75.8327C90.527 76.3119 89.5895 76.8049 89.0964 76.5584Z" fill="#868686"/>
</g>
<g opacity="0.4">
<path opacity="0.4" d="M85.5444 73.7929C85.0124 73.1679 86.1847 73.3484 86.5806 73.5464C86.9751 73.7443 86.3827 74.7798 85.5444 73.7929Z" fill="#868686"/>
</g>
<g opacity="0.4">
<path opacity="0.4" d="M94.1788 75.6993C93.6864 74.6804 94.9699 75.434 94.8713 75.6993C94.7712 75.9639 94.1788 75.6993 94.1788 75.6993Z" fill="#868686"/>
</g>
<g opacity="0.4">
<path opacity="0.4" d="M85.6445 75.8312C85.1993 75.4714 86.0264 75.4436 86.0577 75.818C86.0876 76.1923 85.6445 75.8312 85.6445 75.8312Z" fill="#868686"/>
</g>
<g opacity="0.4">
<path opacity="0.4" d="M78.0716 76.2249C77.8375 76.054 78.3771 75.6318 78.6605 75.9527C78.9446 76.2735 78.4938 76.5326 78.0716 76.2249Z" fill="#868686"/>
</g>
<g opacity="0.4">
<path opacity="0.4" d="M68.9663 82.2612C68.5197 81.8994 69.8552 81.4389 70.3476 81.932C70.8407 82.4265 69.6573 82.821 68.9663 82.2612Z" fill="#868686"/>
</g>
<path d="M91.3527 58.5762C91.6827 58.548 91.9661 58.7935 91.9851 59.1241L92.3441 65.3422C92.3631 65.6728 92.1109 65.9654 91.7811 65.9954L78.7561 67.1765C78.4264 67.2064 78.1432 66.9623 78.1242 66.6317L77.7629 60.3387C77.7439 60.0081 77.9964 59.7168 78.3263 59.6886L91.3527 58.5762Z" fill="white"/>
<path d="M91.3527 58.5762C91.6827 58.548 91.9661 58.7935 91.9851 59.1241L92.3441 65.3422C92.3631 65.6728 92.1109 65.9654 91.7811 65.9954L78.7561 67.1765C78.4264 67.2064 78.1432 66.9623 78.1242 66.6317L77.7629 60.3387C77.7439 60.0081 77.9964 59.7168 78.3263 59.6886L91.3527 58.5762Z" stroke="black" stroke-width="1.19625" stroke-linecap="round" stroke-linejoin="round"/>
<path d="M86.4814 77.8727C83.1051 71.5268 74.2073 69.3203 70.8484 68.7369" stroke="black" stroke-width="10.4672"/>
<path d="M86.4814 77.8727C83.1051 71.5268 74.2073 69.3203 70.8484 68.7369" stroke="white" stroke-width="7.47656"/>
<path d="M81.0038 66.9902C79.5351 69.994 76.8567 75.1176 76.8567 75.1176" stroke="black" stroke-width="1.49531"/>
<path d="M71.4019 65.1786L70.2427 72.3444" stroke="white" stroke-width="1.19625"/>
<path d="M95.6609 74.0405L87.812 83.2599C87.2083 83.9691 86.144 84.0545 85.4349 83.4508L82.2835 80.7679C81.5743 80.1641 81.4888 79.0999 82.0926 78.3907L89.9415 69.1713C91.2861 67.5919 93.6564 67.4016 95.2358 68.7462C96.8152 70.0908 97.0055 72.4611 95.6609 74.0405Z" fill="white"/>
<path d="M95.6609 74.0405L87.812 83.2599C87.2083 83.9691 86.144 84.0545 85.4349 83.4508L82.2835 80.7679C81.5743 80.1641 81.4888 79.0999 82.0926 78.3907L89.9415 69.1713C91.2861 67.5919 93.6564 67.4016 95.2358 68.7462C96.8152 70.0908 97.0055 72.4611 95.6609 74.0405Z" stroke="black" stroke-width="1.49531" stroke-miterlimit="10"/>
<path d="M71.9805 9.32195C57.422 11.8415 50.7004 24.7231 53.3697 37.8332C56.527 53.34 68.2004 56.8543 81.2878 55.034C93.1504 53.3841 98.8995 48.5397 97.2282 28.4442C96.0137 13.8414 87.017 6.71968 71.9805 9.32195Z" fill="white"/>
<path d="M71.9805 9.32195C57.422 11.8415 50.7004 24.7231 53.3697 37.8332C56.527 53.34 68.2004 56.8543 81.2878 55.034C93.1504 53.3841 98.8995 48.5397 97.2282 28.4442C96.0137 13.8414 87.017 6.71968 71.9805 9.32195Z" stroke="black" stroke-width="1.49531" stroke-miterlimit="10"/>
<path d="M85.9065 50.6491C75.3079 52.9601 65.515 51.5026 62.2436 38.9346C59.9165 29.9942 63.8444 17.7091 78.4275 14.6679C93.9471 11.4315 98.6701 20.3434 100.664 30.6529C102.686 41.111 96.2874 48.3856 85.9065 50.6491Z" fill="black"/>
<path d="M55.5171 29.8217C51.3364 30.6729 48.6508 34.8177 49.5185 39.0796C50.3863 43.3414 54.4787 46.1062 58.6594 45.255C62.8401 44.4038 64.8492 40.3201 63.9815 36.0583C63.1138 31.7965 59.6977 28.9704 55.5171 29.8217Z" fill="white"/>
<path d="M55.5171 29.8217C51.3364 30.6729 48.6508 34.8177 49.5185 39.0796C50.3863 43.3414 54.4787 46.1062 58.6594 45.255C62.8401 44.4038 64.8492 40.3201 63.9815 36.0583C63.1138 31.7965 59.6977 28.9704 55.5171 29.8217Z" stroke="black" stroke-width="1.49531"/>
<path d="M53.7554 30.9463C51.3107 31.3934 48.6503 34.8184 49.518 39.0802C50.3858 43.342 54.542 45.7112 56.8352 45.3208C59.8376 44.8098 61.437 40.4804 60.6589 36.6588C60.0751 33.7917 57.445 30.2716 53.7554 30.9463Z" fill="white"/>
<path d="M53.7554 30.9463C51.3107 31.3934 48.6503 34.8184 49.518 39.0802C50.3858 43.342 54.542 45.7112 56.8352 45.3208C59.8376 44.8098 61.437 40.4804 60.6589 36.6588C60.0751 33.7917 57.445 30.2716 53.7554 30.9463Z" stroke="black" stroke-width="1.49531"/>
<path d="M67.1017 73.2173C62.1602 68.8973 62.2503 64.6349 64.468 57.915" stroke="black" stroke-width="10.4672" stroke-linecap="round" stroke-linejoin="round"/>
<path d="M67.1017 73.2173C62.1602 68.8973 62.2503 64.6349 64.468 57.915" stroke="white" stroke-width="7.47656" stroke-linecap="round" stroke-linejoin="round"/>
<path d="M67.8582 66.778C63.1666 64.5166 59.2913 69.0243 59.2913 69.0243" stroke="black" stroke-width="1.49531"/>
<path d="M67.8647 60.9433C64.5431 57.2754 58.9802 59.7334 58.9802 59.7334" stroke="black" stroke-width="1.49531"/>
<path d="M73.1839 72.7137C73.1839 72.7137 75.2001 73.8251 75.9786 74.084C77.8632 74.7108 79.3695 74.8021 79.6029 73.6583C79.8996 72.2047 78.7888 70.9189 77.7748 70.3933C76.6285 69.799 74.7552 69.8566 73.2736 69.6513C71.1854 69.3621 67.8078 68.7445 66.4393 69.9806C65.228 71.0747 64.2904 72.064 63.8037 74.2889C63.1512 77.2724 64.4443 78.782 66.2334 79.476C68.4387 80.3314 69.4199 79.5771 70.3902 79.8353C71.3836 80.0997 72.0677 80.2676 72.6761 80.8349C73.7823 81.8661 74.9377 81.645 75.5751 81.0647C76.25 80.4503 76.4862 79.5837 75.6813 78.2663C74.8765 76.9489 72.7727 76.2739 72.7727 76.2739" fill="white"/>
<path d="M73.1839 72.7137C73.1839 72.7137 75.2001 73.8251 75.9786 74.084C77.8632 74.7108 79.3695 74.8021 79.6029 73.6583C79.8996 72.2047 78.7888 70.9189 77.7748 70.3933C76.6285 69.799 74.7552 69.8566 73.2736 69.6513C71.1854 69.3621 67.8078 68.7445 66.4393 69.9806C65.228 71.0747 64.2904 72.064 63.8037 74.2889C63.1512 77.2724 64.4443 78.782 66.2334 79.476C68.4387 80.3314 69.4199 79.5771 70.3902 79.8353C71.3836 80.0996 72.0677 80.2676 72.6761 80.8349C73.7823 81.8661 74.9377 81.645 75.5751 81.0647C76.25 80.4503 76.4862 79.5837 75.6813 78.2663C74.8765 76.9489 72.7727 76.2739 72.7727 76.2739" stroke="black" stroke-width="1.49531" stroke-linecap="round" stroke-linejoin="round"/>
<path d="M72.6612 72.5058C72.6612 72.5058 79.7547 74.3904 78.9624 77.2798C77.828 81.4169 74.9137 76.8078 72.1921 75.9693" fill="white"/>
<path d="M72.6612 72.5058C72.6612 72.5058 79.7547 74.3904 78.9624 77.2798C77.828 81.4169 74.9137 76.8078 72.1921 75.9693" stroke="black" stroke-width="1.49531" stroke-linecap="round" stroke-linejoin="round"/>
<path d="M98.9754 40.4458C97.7839 41.1478 97.0865 42.3053 98.1306 43.6866C99.1747 45.0679 100.18 47.4573 100.839 47.3041C102.492 46.9195 102.732 43.6537 102.114 42.2412C101.497 40.8288 100.49 39.5536 98.9754 40.4458Z" fill="white"/>
<path d="M98.9754 40.4458C97.7839 41.1478 97.0865 42.3053 98.1306 43.6866C99.1747 45.0679 100.18 47.4573 100.839 47.3041C102.492 46.9195 102.732 43.6537 102.114 42.2412C101.497 40.8288 100.49 39.5536 98.9754 40.4458Z" stroke="black" stroke-width="1.49531"/>
<path d="M100.297 40.6941C99.8559 42.5995 101.283 43.4211 101.648 44.3087C102.805 47.1261 102.909 49.5433 104.365 50.1944C106.254 51.0391 109.428 49.7785 110.574 47.1683C111.236 45.6624 110.402 40.7075 108.231 38.6105C106.48 36.9199 100.778 38.6171 100.297 40.6941Z" fill="white"/>
<path d="M100.297 40.6941C99.8559 42.5995 101.283 43.4211 101.648 44.3087C102.805 47.1261 102.909 49.5433 104.365 50.1944C106.254 51.0391 109.428 49.7785 110.574 47.1683C111.236 45.6624 110.402 40.7075 108.231 38.6105C106.48 36.9199 100.778 38.6171 100.297 40.6941Z" stroke="black" stroke-width="1.49531"/>
<path d="M98.9975 48.4516L92.2443 50.8073L93.0137 52.9498C93.0137 52.9498 95.0803 52.9053 96.6464 52.3296C98.208 51.7565 99.7668 50.5941 99.7668 50.5941L98.9975 48.4516Z" fill="#5DAACA"/>
<path d="M98.9975 48.4516L92.2443 50.8073L93.0137 52.9498C93.0137 52.9498 95.0803 52.9053 96.6464 52.3296C98.208 51.7565 99.7668 50.5941 99.7668 50.5941L98.9975 48.4516Z" stroke="black" stroke-width="1.19625" stroke-linecap="round" stroke-linejoin="round"/>
<path d="M92.4803 41.3019C88.6132 42.6663 85.8446 44.7796 86.3813 45.9395C88.1292 49.9175 91.1249 52.1508 95.9822 50.4257C100.665 48.7613 101.58 45.131 100.385 40.9984C100.005 39.6092 96.3473 39.9374 92.4803 41.3019Z" fill="#5DAACA"/>
<path d="M92.4803 41.3019C88.6132 42.6663 85.8446 44.7796 86.3813 45.9395C88.1292 49.9175 91.1249 52.1508 95.9822 50.4257C100.665 48.7613 101.58 45.131 100.385 40.9984C100.005 39.6092 96.3473 39.9374 92.4803 41.3019Z" stroke="black" stroke-width="1.19625" stroke-linecap="round" stroke-linejoin="round"/>
<path d="M34.2906 78.9025L35.8515 81.7564L38.7054 83.3173L35.8515 84.8783L34.2906 87.7322L32.7296 84.8783L29.8757 83.3173L32.7296 81.7564L34.2906 78.9025Z" fill="#F3BA2D"/>
<path d="M34.2906 78.9025L35.8515 81.7564L38.7054 83.3173L35.8515 84.8783L34.2906 87.7322L32.7296 84.8783L29.8757 83.3173L32.7296 81.7564L34.2906 78.9025Z" stroke="black" stroke-width="0.897187" stroke-linecap="round" stroke-linejoin="round"/>
<path d="M20.2473 36.8406L22.1128 40.2512L25.5234 42.1167L22.1128 43.9821L20.2473 47.3928L18.3819 43.9821L14.9713 42.1167L18.3819 40.2512L20.2473 36.8406Z" fill="#F3BA2D"/>
<path d="M20.2473 36.8406L22.1128 40.2512L25.5234 42.1167L22.1128 43.9821L20.2473 47.3928L18.3819 43.9821L14.9713 42.1167L18.3819 40.2512L20.2473 36.8406Z" stroke="black" stroke-width="0.897187" stroke-linecap="round" stroke-linejoin="round"/>
<path d="M23.0393 131.982L24.5138 134.678L27.2099 136.152L24.5138 137.627L23.0393 140.323L21.5647 137.627L18.8687 136.152L21.5647 134.678L23.0393 131.982Z" fill="#F3BA2D"/>
<path d="M23.0393 131.982L24.5138 134.678L27.2099 136.152L24.5138 137.627L23.0393 140.323L21.5647 137.627L18.8687 136.152L21.5647 134.678L23.0393 131.982Z" stroke="black" stroke-width="0.897187" stroke-linecap="round" stroke-linejoin="round"/>
<path d="M143.982 122.26L145.543 125.114L148.397 126.675L145.543 128.236L143.982 131.09L142.421 128.236L139.567 126.675L142.421 125.114L143.982 122.26Z" fill="#F3BA2D"/>
<path d="M143.982 122.26L145.543 125.114L148.397 126.675L145.543 128.236L143.982 131.09L142.421 128.236L139.567 126.675L142.421 125.114L143.982 122.26Z" stroke="black" stroke-width="0.897187" stroke-linecap="round" stroke-linejoin="round"/>
<path d="M147.628 63.2318L149.313 66.3116L152.392 67.9962L149.313 69.6807L147.628 72.7605L145.944 69.6807L142.864 67.9962L145.944 66.3116L147.628 63.2318Z" fill="#F3BA2D"/>
<path d="M147.628 63.2318L149.313 66.3116L152.392 67.9962L149.313 69.6807L147.628 72.7605L145.943 69.6807L142.864 67.9962L145.943 66.3116L147.628 63.2318Z" stroke="black" stroke-width="0.897187" stroke-linecap="round" stroke-linejoin="round"/>
<path d="M123.68 14.8535L125.146 17.5329L127.825 18.9984L125.146 20.4639L123.68 23.1433L122.215 20.4639L119.535 18.9984L122.215 17.5329L123.68 14.8535Z" fill="#F3BA2D"/>
<path d="M123.68 14.8535L125.146 17.5329L127.825 18.9984L125.146 20.4639L123.68 23.1433L122.215 20.4639L119.535 18.9984L122.215 17.5329L123.68 14.8535Z" stroke="black" stroke-width="0.897187" stroke-linecap="round" stroke-linejoin="round"/>
<defs>
<clipPath id="clip0_2_816">
<rect width="13.4031" height="13.4031" fill="white" transform="translate(136.292 88.142)"/>
</clipPath>
</defs>
</svg>
