<svg width="160" height="160" viewBox="0 0 160 160" fill="none" xmlns="http://www.w3.org/2000/svg">
<mask id="mask0_2_6299" style="mask-type:alpha" maskUnits="userSpaceOnUse" x="23" y="27" width="118" height="97">
<path fill-rule="evenodd" clip-rule="evenodd" d="M130.3 114.661C127.894 123.596 106.271 123.319 83.164 123.023C78.9704 122.969 74.7279 122.915 70.5426 122.915C34.4646 122.915 23.1762 106.249 23.1763 79.8278C23.1764 53.4062 47.7322 16.2025 85.2066 30.0546C89.7337 31.728 93.3869 33.6195 96.3526 35.6998C98.8644 35.1295 101.914 35.0995 105.567 35.7095C151.383 43.362 143.986 98.1436 130.3 114.661Z" fill="#D2E5CF"/>
</mask>
<g mask="url(#mask0_2_6299)">
<rect width="189.496" height="168.594" transform="matrix(-1 0 0 1 170.121 -10.562)" fill="#D2E5CF"/>
</g>
<rect x="131.486" y="85.6289" width="23.0138" height="17.4292" rx="3.96769" fill="#ECECF0"/>
<rect x="131.486" y="85.6289" width="23.0138" height="17.4292" rx="3.96769" stroke="#16161A"/>
<g clip-path="url(#clip0_2_6299)">
<path fill-rule="evenodd" clip-rule="evenodd" d="M136.851 94.3439C136.851 90.9512 139.601 88.2009 142.994 88.2009C146.386 88.2009 149.137 90.9512 149.137 94.3439C149.137 97.7367 146.386 100.487 142.994 100.487C139.601 100.487 136.851 97.7367 136.851 94.3439Z" fill="#AFAFB5"/>
<path fill-rule="evenodd" clip-rule="evenodd" d="M145.959 92.1354C146.178 92.3535 146.178 92.7071 145.959 92.9252L142.493 96.5552C142.275 96.7733 141.921 96.7733 141.703 96.5552L140.028 94.8798C139.81 94.6617 139.81 94.3081 140.028 94.09C140.246 93.8719 140.6 93.8719 140.818 94.09L142.098 95.3705L145.17 92.1354C145.388 91.9173 145.741 91.9173 145.959 92.1354Z" fill="#E5E5EB"/>
</g>
<rect x="0.5" y="45.5312" width="45.3523" height="25.8062" rx="3.96769" fill="#ECECF0"/>
<rect x="0.5" y="45.5312" width="45.3523" height="25.8062" rx="3.96769" stroke="#16161A"/>
<ellipse cx="6.33015" cy="51.3605" rx="1.86247" ry="1.86154" fill="#54CD83"/>
<rect x="11.1694" y="50.059" width="29.5985" height="2.79231" rx="1.11692" fill="#D4D4D9"/>
<ellipse cx="6.33015" cy="58.4343" rx="1.86247" ry="1.86154" fill="#838DEB"/>
<rect x="11.7275" y="57.317" width="17.3123" height="2.79231" rx="1.11692" fill="#D4D4D9"/>
<ellipse cx="6.33015" cy="65.5082" rx="1.86247" ry="1.86154" fill="#64B5F6"/>
<rect x="11.5434" y="64.2071" width="24.5723" height="2.79231" rx="1.11692" fill="#D4D4D9"/>
<rect x="127.875" y="125.064" width="24.3935" height="18.488" rx="4.22437" fill="#D2E5CF"/>
<rect x="127.875" y="125.064" width="24.3935" height="18.488" rx="4.22437" stroke="#16161A"/>
<path d="M139.548 130.595C139.768 130.17 140.376 130.17 140.596 130.595L141.488 132.315C141.571 132.475 141.722 132.588 141.898 132.623L143.776 132.992C144.225 133.081 144.407 133.626 144.101 133.967L142.756 135.463C142.641 135.59 142.588 135.76 142.609 135.93L142.829 137.714C142.891 138.222 142.323 138.564 141.904 138.27L140.411 137.223C140.207 137.08 139.936 137.08 139.733 137.223L138.24 138.27C137.821 138.564 137.252 138.222 137.315 137.714L137.535 135.93C137.556 135.76 137.502 135.59 137.388 135.463L136.043 133.967C135.736 133.626 135.918 133.081 136.368 132.992L138.245 132.623C138.421 132.588 138.572 132.475 138.655 132.315L139.548 130.595Z" fill="#009535" stroke="#009535" stroke-width="0.885819" stroke-linecap="round" stroke-linejoin="round"/>
<path d="M111.897 118.586L86.1732 125.962C83.781 126.648 81.2857 125.265 80.5998 122.873L74.0519 100.038C73.366 97.6456 74.7492 95.1503 77.1413 94.4643L102.865 87.0882C105.257 86.4022 107.753 87.7854 108.439 90.1776L114.986 113.013C115.672 115.405 114.289 117.9 111.897 118.586Z" fill="white"/>
<path d="M111.897 118.586L86.1732 125.962C83.781 126.648 81.2857 125.265 80.5998 122.873L74.0519 100.038C73.366 97.6456 74.7492 95.1503 77.1413 94.4643L102.865 87.0882C105.257 86.4022 107.753 87.7854 108.439 90.1776L114.986 113.013C115.672 115.405 114.289 117.9 111.897 118.586Z" stroke="black" stroke-width="1.93888" stroke-miterlimit="10"/>
<path d="M114.425 88.4279L94.954 100.474" stroke="black" stroke-width="13.5722" stroke-linecap="round" stroke-linejoin="round"/>
<path d="M114.425 88.4279L94.954 100.474" stroke="white" stroke-width="9.6944" stroke-linecap="round" stroke-linejoin="round"/>
<path d="M104.767 87.8405C104.767 87.8405 104.917 92.9927 110.476 97.7453" stroke="black" stroke-width="1.93888"/>
<path d="M97.245 92.1325C97.245 92.1325 97.7058 98.7369 102.973 102.32" stroke="black" stroke-width="1.93888"/>
<path d="M55.4282 111.747C36.4237 128 43.8399 115.106 55.4387 111.804" stroke="black" stroke-width="13.5722" stroke-linecap="round" stroke-linejoin="round"/>
<path d="M55.4282 111.747C36.4237 128 43.8399 115.106 55.4387 111.804" stroke="white" stroke-width="9.6944" stroke-linecap="round" stroke-linejoin="round"/>
<path d="M50.6121 123.062C50.6121 123.062 43.9369 122.135 43.0014 115.539" stroke="black" stroke-width="1.93888"/>
<path d="M41.2878 116.473C41.2878 116.473 45.3909 112.779 51.4088 110.482" stroke="black" stroke-width="1.93888"/>
<path d="M89.5738 124.267C92.118 128.63 100.164 139.294 104.503 146.952" stroke="black" stroke-width="13.5722" stroke-linecap="round" stroke-linejoin="round"/>
<path d="M89.5738 124.267C92.118 128.63 100.164 139.294 104.503 146.952" stroke="white" stroke-width="9.6944" stroke-linecap="round" stroke-linejoin="round"/>
<path d="M103.073 133.962L90.5669 137.064" stroke="black" stroke-width="1.5511"/>
<path d="M67.5179 126.982C60.4173 136.191 64.1012 142.299 68.4873 146.952" stroke="black" stroke-width="13.5722" stroke-linecap="round" stroke-linejoin="round"/>
<path d="M67.5179 126.982C60.4173 136.191 64.1012 142.299 68.4873 146.952" stroke="white" stroke-width="9.6944" stroke-linecap="round" stroke-linejoin="round"/>
<path d="M58.7693 138.518L69.2392 136.676" stroke="black" stroke-width="1.5511"/>
<path d="M108.502 153.268H92.6659C90.061 153.268 87.9494 151.157 87.9494 148.552V148.697C87.9494 145.859 90.2497 143.559 93.0874 143.559H108.356C109.614 143.559 110.634 144.579 110.634 145.837V151.136C110.634 152.313 109.679 153.268 108.502 153.268Z" fill="white"/>
<path d="M108.502 153.268H92.6659C90.061 153.268 87.9494 151.157 87.9494 148.552V148.697C87.9494 145.859 90.2497 143.559 93.0874 143.559H108.356C109.614 143.559 110.634 144.579 110.634 145.837V151.136C110.634 152.313 109.679 153.268 108.502 153.268Z" stroke="black" stroke-width="1.93888" stroke-miterlimit="10"/>
<path d="M57.0553 153.268H72.7059C73.9098 153.268 74.8856 152.293 74.8856 151.089V145.739C74.8856 144.535 73.9098 143.559 72.7059 143.559H57.0553C54.3742 143.559 52.2007 145.733 52.2007 148.414C52.2007 151.095 54.3742 153.268 57.0553 153.268Z" fill="white"/>
<path d="M57.0553 153.268H72.7059C73.9098 153.268 74.8856 152.293 74.8856 151.089V145.739C74.8856 144.535 73.9098 143.559 72.7059 143.559H57.0553C54.3742 143.559 52.2007 145.733 52.2007 148.414C52.2007 151.095 54.3742 153.268 57.0553 153.268Z" stroke="black" stroke-width="1.93888" stroke-miterlimit="10"/>
<path d="M93.2395 126.155L69.6628 132.915C64.1559 134.494 58.4115 131.31 56.8324 125.803L52.9837 112.428C51.6195 107.671 54.3702 102.708 59.1275 101.344L86.2575 93.5648C91.0148 92.2007 95.9773 94.9513 97.3414 99.7086L100.95 112.245C102.662 118.215 99.2097 124.443 93.2395 126.155Z" fill="white"/>
<path d="M93.2395 126.155L69.6628 132.915C64.1559 134.494 58.4115 131.31 56.8324 125.803L52.9837 112.428C51.6195 107.671 54.3702 102.708 59.1275 101.344L86.2575 93.5648C91.0148 92.2007 95.9773 94.9513 97.3414 99.7086L100.95 112.245C102.662 118.215 99.2097 124.443 93.2395 126.155Z" stroke="black" stroke-width="1.93888" stroke-miterlimit="10"/>
<path d="M114.425 88.4279L94.954 100.474" stroke="black" stroke-width="13.5722" stroke-linecap="round" stroke-linejoin="round"/>
<path d="M114.425 88.4279L94.954 100.474" stroke="white" stroke-width="9.6944" stroke-linecap="round" stroke-linejoin="round"/>
<path d="M104.767 87.8405C104.767 87.8405 104.917 92.9927 110.476 97.7453" stroke="black" stroke-width="1.93888"/>
<path d="M97.245 92.1325C97.245 92.1325 97.7058 98.7369 102.973 102.32" stroke="black" stroke-width="1.93888"/>
<path d="M126.384 74.3418C123.225 75.0217 121.367 75.8573 118.486 77.6808C115.308 79.6919 114.181 80.7313 112.685 82.4627C111.35 84.0079 110.82 85.5514 111.26 87.3663C111.81 89.6304 113.574 91.7319 115.836 92.4995C117.591 93.0953 119.512 92.7186 121.294 92.2066C123.582 91.5491 127.762 88.9783 128.852 87.9649C129.554 87.3121 128.985 85.1286 127.647 84.9287C125.383 84.5904 120.602 86.5314 120.602 86.5314L124.919 85.1783C124.919 85.1783 126.718 84.0843 128.635 82.8042C130.772 81.3769 132.987 79.4097 131.791 76.7797C131.184 75.4448 128.682 73.8474 126.384 74.3418Z" fill="white"/>
<path d="M126.384 74.3418C123.225 75.0217 121.367 75.8573 118.486 77.6808C115.308 79.6919 114.181 80.7313 112.685 82.4627C111.35 84.0079 110.82 85.5514 111.26 87.3663C111.81 89.6304 113.574 91.7319 115.836 92.4995C117.591 93.0953 119.512 92.7186 121.294 92.2066C123.582 91.5491 127.762 88.9783 128.852 87.9649C129.554 87.3121 128.985 85.1286 127.647 84.9287C125.383 84.5904 120.602 86.5314 120.602 86.5314L124.919 85.1783C124.919 85.1783 126.718 84.0843 128.635 82.8042C130.772 81.3769 132.987 79.4097 131.791 76.7797C131.184 75.4448 128.682 73.8474 126.384 74.3418Z" stroke="black" stroke-width="1.93888" stroke-linecap="round" stroke-linejoin="round"/>
<path d="M82.5102 121.365L62.1522 127.202C61.7522 127.317 61.3352 127.086 61.2205 126.686L58.6429 117.697C58.5282 117.297 58.7594 116.88 59.1594 116.765L79.5174 110.928C79.9173 110.813 80.3344 111.044 80.4491 111.444L83.0266 120.433C83.1413 120.833 82.9101 121.25 82.5102 121.365Z" fill="white"/>
<path d="M82.5102 121.365L62.1522 127.202C61.7522 127.317 61.3352 127.086 61.2205 126.686L58.6429 117.697C58.5282 117.297 58.7594 116.88 59.1594 116.765L79.5174 110.928C79.9173 110.813 80.3344 111.044 80.4491 111.444L83.0266 120.433C83.1413 120.833 82.9101 121.25 82.5102 121.365Z" stroke="black" stroke-width="1.5511" stroke-miterlimit="10"/>
<path d="M44.9552 77.8757C44.9552 77.8757 39.2009 76.0968 38.1374 78.0154C37.0739 79.934 37.1835 83.1298 38.7334 88.5347C40.2832 93.9396 42.1561 99.0164 44.0696 98.7033C47.3449 98.1675 50.1392 95.9543 50.1392 95.9543L44.9552 77.8757Z" fill="white"/>
<path d="M44.9552 77.8757C44.9552 77.8757 39.2009 76.0968 38.1374 78.0154C37.0739 79.934 37.1835 83.1298 38.7334 88.5347C40.2832 93.9396 42.1561 99.0164 44.0696 98.7033C47.3449 98.1675 50.1392 95.9543 50.1392 95.9543L44.9552 77.8757Z" stroke="black" stroke-width="1.93888" stroke-miterlimit="10"/>
<path d="M54.9638 51.4067C33.5266 58.4614 30.2315 73.1385 36.2906 89.336C44.2293 110.558 56.4972 114.301 71.5846 109.37C87.8188 104.064 98.9602 92.6453 93.322 72.9825C88.5552 56.3588 73.1047 45.4369 54.9638 51.4067Z" fill="white"/>
<path d="M54.9638 51.4067C33.5266 58.4614 30.2315 73.1385 36.2906 89.336C44.2293 110.558 56.4972 114.301 71.5846 109.37C87.8188 104.064 98.9602 92.6453 93.322 72.9825C88.5552 56.3588 73.1047 45.4369 54.9638 51.4067Z" stroke="black" stroke-width="1.93888" stroke-miterlimit="10"/>
<path d="M63.5793 107.127C52.7229 110.24 39.5528 107.966 34.7632 93.5055C30.4345 80.4368 30.8162 66.9033 50.4324 61.2784C70.0486 55.6536 80.3344 67.784 83.7139 79.5699C88.5238 96.3439 74.4358 104.014 63.5793 107.127Z" fill="black"/>
<path d="M84.0285 65.4106C89.3297 63.8906 94.8831 67.0391 96.4327 72.4431C97.9823 77.8471 94.9411 83.4602 89.64 84.9802C84.3389 86.5003 79.5974 83.0181 78.0478 77.6141C76.4983 72.2101 78.7274 66.9307 84.0285 65.4106Z" fill="white"/>
<path d="M84.0285 65.4106C89.3297 63.8906 94.8831 67.0391 96.4327 72.4431C97.9823 77.8471 94.9411 83.4602 89.64 84.9802C84.3389 86.5003 79.5974 83.0181 78.0478 77.6141C76.4983 72.2101 78.7274 66.9307 84.0285 65.4106Z" stroke="black" stroke-width="1.93888"/>
<path d="M86.7186 65.6478C89.7883 64.7008 94.8831 67.0391 96.4327 72.4431C97.9823 77.8471 94.6318 83.0446 91.7696 83.9662C88.0225 85.1728 83.6041 81.1642 82.2146 76.3184C81.1721 72.6829 82.0859 67.077 86.7186 65.6478Z" fill="white"/>
<path d="M86.7186 65.6478C89.7883 64.7008 94.8831 67.0391 96.4327 72.4431C97.9823 77.8471 94.6318 83.0446 91.7696 83.9662C88.0225 85.1728 83.6041 81.1642 82.2146 76.3184C81.1721 72.6829 82.0859 67.077 86.7186 65.6478Z" stroke="black" stroke-width="1.93888"/>
<path d="M68.8615 109.091C67.0478 111.766 65.5768 113.176 62.8067 115.164C59.7517 117.357 58.3659 118.012 56.2001 118.751C54.2673 119.41 52.6376 119.323 51.1198 118.235C49.2264 116.877 47.9388 114.455 48.0743 112.07C48.1796 110.219 49.2485 108.579 50.3907 107.119C51.8575 105.243 55.1409 103.381 56.5777 102.993C58.242 102.544 60.2561 104.142 59.1651 104.942C56.4405 106.94 54.4069 108.334 54.4069 108.334L54.5959 108.305C54.5959 108.305 59.518 104.735 61.4822 103.529C64.344 101.772 66.9651 101.388 68.9554 103.483C69.9656 104.546 70.1805 107.147 68.8615 109.091Z" fill="white"/>
<path d="M68.8615 109.091C67.0478 111.766 65.5768 113.176 62.8067 115.164C59.7517 117.357 58.3659 118.012 56.2001 118.751C54.2673 119.41 52.6376 119.323 51.1198 118.235C49.2264 116.877 47.9388 114.455 48.0743 112.07C48.1796 110.219 49.2485 108.579 50.3907 107.119C51.8575 105.243 55.1409 103.381 56.5777 102.993C58.242 102.544 60.2561 104.142 59.1651 104.942C56.4405 106.94 54.4069 108.334 54.4069 108.334L54.5959 108.305C54.5959 108.305 59.518 104.735 61.4822 103.529C64.344 101.772 66.9651 101.388 68.9554 103.483C69.9656 104.546 70.1805 107.147 68.8615 109.091Z" stroke="black" stroke-width="1.93888" stroke-linecap="round" stroke-linejoin="round"/>
<g opacity="0.951349">
<path opacity="0.951349" d="M121.447 18.4947H123.682C125.149 18.4947 126.148 18.772 126.68 19.3263C127.211 19.8806 127.476 20.5563 127.476 21.3532C127.476 22.1733 127.17 22.8461 126.558 23.3716C125.946 23.8972 124.883 24.1599 123.37 24.1599H121.447V18.4947ZM113.564 38.7302H121.447V29.3055H125.744C128.908 29.3055 131.262 28.5837 132.804 27.1398C134.346 25.6961 135.117 23.6923 135.117 21.1281C135.117 18.6333 134.409 16.7102 132.994 15.3588C131.579 14.0074 129.451 13.3318 126.61 13.3318H113.564V38.7302ZM80.3707 38.7302H86.7983V19.361L91.7415 38.7302H97.5595L102.512 19.361V38.7302H108.94V13.3318H98.6243L94.6725 28.7857L90.692 13.3318H80.3707V38.7302ZM67.7866 28.8241C67.7866 30.2321 67.4025 31.3198 66.6345 32.0872C65.8663 32.8546 64.8067 33.2381 63.4553 33.2381C62.0923 33.2381 61.0269 32.8488 60.2589 32.0698C59.4907 31.2909 59.1068 30.209 59.1068 28.8241V13.3318H51.2759V28.4638C51.2759 29.7104 51.5184 31.1416 52.0035 32.7575C52.3037 33.7618 52.8611 34.7371 53.6754 35.6835C54.4898 36.6298 55.3877 37.3598 56.3695 37.8734C57.3512 38.3872 58.5723 38.7302 60.0336 38.9038C61.4945 39.0767 62.843 39.1634 64.0791 39.1634C66.2157 39.1634 68.0466 38.8805 69.5711 38.3149C70.6684 37.911 71.7165 37.2099 72.7156 36.2116C73.7145 35.2133 74.448 34.0472 74.9159 32.7141C75.3837 31.3811 75.6176 29.9643 75.6176 28.4638V13.3318H67.7866V28.8241ZM32.8007 28.1273H36.7854C38.1597 28.1273 39.1212 28.3555 39.6699 28.8117C40.2184 29.2681 40.493 29.8715 40.493 30.6222C40.493 31.4307 40.2157 32.0748 39.6614 32.5539C39.1071 33.0334 38.1541 33.2729 36.8027 33.2729H32.8007V28.1273ZM32.8007 18.4772H36.2656C37.4551 18.4772 38.2896 18.6851 38.7691 19.101C39.2482 19.5169 39.4881 20.0945 39.4881 20.8336C39.4881 21.6305 39.2482 22.2398 38.7691 22.6614C38.2896 23.0831 37.4379 23.2936 36.2137 23.2936H32.8007V18.4772ZM24.8832 38.7302H38.4314C39.0088 38.7302 40.1812 38.6149 41.9483 38.3837C43.2764 38.2104 44.2697 37.9333 44.9282 37.5522C45.9907 36.9401 46.8279 36.1085 47.4402 35.0574C48.0523 34.0065 48.3584 32.8224 48.3584 31.5058C48.3584 29.8889 47.928 28.5462 47.0677 27.4777C46.2072 26.4096 44.8646 25.656 43.0397 25.2168C44.2408 24.8009 45.1533 24.2351 45.777 23.5189C46.7125 22.4448 47.1804 21.1572 47.1804 19.6555C47.1804 17.8653 46.5246 16.3637 45.214 15.1509C43.9029 13.9381 42.0231 13.3318 39.5747 13.3318H24.8832V38.7302Z" stroke="white" stroke-width="3.87776" stroke-linecap="round" stroke-linejoin="round"/>
<path d="M121.447 18.4947H123.682C125.149 18.4947 126.148 18.772 126.68 19.3263C127.211 19.8806 127.476 20.5563 127.476 21.3532C127.476 22.1733 127.17 22.8461 126.558 23.3716C125.946 23.8972 124.883 24.1599 123.37 24.1599H121.447V18.4947ZM113.564 38.7302H121.447V29.3055H125.744C128.908 29.3055 131.262 28.5837 132.804 27.1398C134.346 25.6961 135.117 23.6923 135.117 21.1281C135.117 18.6333 134.409 16.7102 132.994 15.3588C131.579 14.0074 129.451 13.3318 126.61 13.3318H113.564V38.7302Z" stroke="white" stroke-width="5.81664" stroke-linecap="round" stroke-linejoin="round"/>
<path d="M121.447 18.4947H123.682C125.149 18.4947 126.148 18.772 126.68 19.3263C127.211 19.8806 127.476 20.5563 127.476 21.3532C127.476 22.1733 127.17 22.8461 126.558 23.3716C125.946 23.8972 124.883 24.1599 123.37 24.1599H121.447V18.4947ZM113.564 38.7302H121.447V29.3055H125.744C128.908 29.3055 131.262 28.5837 132.804 27.1398C134.346 25.6961 135.117 23.6923 135.117 21.1281C135.117 18.6333 134.409 16.7102 132.994 15.3588C131.579 14.0074 129.451 13.3318 126.61 13.3318H113.564V38.7302Z" fill="black"/>
<path d="M80.3707 38.7302H86.7983V19.361L91.7415 38.7302H97.5595L102.512 19.361V38.7302H108.94V13.3318H98.6243L94.6725 28.7857L90.692 13.3318H80.3707V38.7302Z" stroke="white" stroke-width="5.81664" stroke-linecap="round" stroke-linejoin="round"/>
<path d="M80.3707 38.7302H86.7983V19.361L91.7415 38.7302H97.5595L102.512 19.361V38.7302H108.94V13.3318H98.6243L94.6725 28.7857L90.692 13.3318H80.3707V38.7302Z" fill="black"/>
<path d="M67.7866 28.8241C67.7866 30.2321 67.4025 31.3198 66.6345 32.0872C65.8663 32.8546 64.8067 33.2381 63.4553 33.2381C62.0923 33.2381 61.0269 32.8488 60.2589 32.0698C59.4907 31.2909 59.1068 30.209 59.1068 28.8241V13.3318H51.2759V28.4638C51.2759 29.7104 51.5184 31.1416 52.0035 32.7575C52.3037 33.7618 52.8611 34.7371 53.6754 35.6835C54.4898 36.6298 55.3877 37.3598 56.3695 37.8734C57.3512 38.3872 58.5723 38.7302 60.0336 38.9038C61.4946 39.0767 62.843 39.1634 64.0791 39.1634C66.2157 39.1634 68.0466 38.8805 69.5712 38.3149C70.6684 37.911 71.7165 37.2099 72.7156 36.2116C73.7145 35.2133 74.448 34.0472 74.9159 32.7141C75.3837 31.3811 75.6176 29.9643 75.6176 28.4638V13.3318H67.7866V28.8241Z" stroke="white" stroke-width="5.81664" stroke-linecap="round" stroke-linejoin="round"/>
<path d="M67.7866 28.8241C67.7866 30.2321 67.4025 31.3198 66.6345 32.0872C65.8663 32.8546 64.8067 33.2381 63.4553 33.2381C62.0923 33.2381 61.0269 32.8488 60.2589 32.0698C59.4907 31.2909 59.1068 30.209 59.1068 28.8241V13.3318H51.2759V28.4638C51.2759 29.7104 51.5184 31.1416 52.0035 32.7575C52.3037 33.7618 52.8611 34.7371 53.6754 35.6835C54.4898 36.6298 55.3877 37.3598 56.3695 37.8734C57.3512 38.3872 58.5723 38.7302 60.0336 38.9038C61.4946 39.0767 62.8431 39.1634 64.0791 39.1634C66.2157 39.1634 68.0466 38.8805 69.5712 38.3149C70.6684 37.911 71.7165 37.2099 72.7156 36.2116C73.7146 35.2133 74.448 34.0472 74.9159 32.7141C75.3837 31.3811 75.6176 29.9643 75.6176 28.4638V13.3318H67.7866V28.8241Z" fill="black"/>
<path d="M32.8007 28.1273H36.7854C38.1597 28.1273 39.1212 28.3555 39.6699 28.8117C40.2184 29.2681 40.493 29.8715 40.493 30.6222C40.493 31.4307 40.2157 32.0748 39.6614 32.5539C39.1071 33.0334 38.1541 33.2728 36.8027 33.2728H32.8007V28.1273ZM32.8007 18.4772H36.2656C37.4551 18.4772 38.2896 18.6851 38.7691 19.101C39.2482 19.5169 39.4881 20.0945 39.4881 20.8336C39.4881 21.6305 39.2482 22.2398 38.7691 22.6614C38.2896 23.0831 37.4379 23.2936 36.2137 23.2936H32.8007V18.4772ZM24.8832 38.7302H38.4314C39.0088 38.7302 40.1812 38.6149 41.9483 38.3837C43.2764 38.2104 44.2697 37.9333 44.9282 37.5522C45.9907 36.94 46.8279 36.1085 47.4402 35.0574C48.0523 34.0065 48.3584 32.8224 48.3584 31.5058C48.3584 29.8889 47.928 28.5462 47.0677 27.4777C46.2072 26.4096 44.8646 25.656 43.0397 25.2168C44.2408 24.8009 45.1533 24.2351 45.777 23.5189C46.7125 22.4448 47.1804 21.1572 47.1804 19.6555C47.1804 17.8653 46.5246 16.3637 45.214 15.1509C43.9029 13.9381 42.0231 13.3318 39.5747 13.3318H24.8832V38.7302Z" stroke="white" stroke-width="5.81664" stroke-linecap="round" stroke-linejoin="round"/>
<path d="M32.8007 28.1273H36.7854C38.1597 28.1273 39.1212 28.3555 39.6699 28.8117C40.2184 29.2681 40.493 29.8715 40.493 30.6222C40.493 31.4307 40.2157 32.0748 39.6614 32.5539C39.1071 33.0334 38.1541 33.2729 36.8027 33.2729H32.8007V28.1273ZM32.8007 18.4772H36.2656C37.4551 18.4772 38.2896 18.6851 38.7691 19.101C39.2482 19.5169 39.4881 20.0945 39.4881 20.8336C39.4881 21.6305 39.2482 22.2398 38.7691 22.6614C38.2896 23.0831 37.4379 23.2936 36.2137 23.2936H32.8007V18.4772ZM24.8832 38.7302H38.4314C39.0088 38.7302 40.1812 38.6149 41.9483 38.3837C43.2764 38.2104 44.2697 37.9333 44.9282 37.5522C45.9907 36.94 46.8279 36.1085 47.4402 35.0574C48.0523 34.0065 48.3584 32.8224 48.3584 31.5058C48.3584 29.8889 47.928 28.5462 47.0677 27.4777C46.2072 26.4096 44.8646 25.656 43.0397 25.2168C44.2408 24.8009 45.1533 24.2351 45.777 23.5189C46.7125 22.4448 47.1804 21.1572 47.1804 19.6555C47.1804 17.8653 46.5246 16.3637 45.214 15.1509C43.9029 13.9381 42.0231 13.3318 39.5747 13.3318H24.8832V38.7302Z" fill="black"/>
</g>
<path d="M23.6589 94.1467C12.7818 89.3262 10.3097 70.5384 19.2092 66.4595C26.3245 63.1984 31.8167 73.9991 21.8387 76.443C7.17611 80.0342 8.63413 54.108 19.1172 49.6633C27.9979 45.898 30.6907 57.3737 21.5084 59.1704C10.6422 61.2966 7.06882 40.123 17.5188 33.3787C21.0244 31.1163 23.9229 32.2658 25.2583 34.3495" stroke="#1F6AFF" stroke-width="1.73045" stroke-linecap="round" stroke-linejoin="round"/>
<path d="M31.7194 117.282C41.9892 114.725 43.5184 95.7614 31.6391 89.6381C21.4398 84.3805 16.2554 98.6716 28.5393 99.6535C40.9341 100.644 45.6787 80.7476 24.0572 73.8075" stroke="#FF3232" stroke-width="1.73045" stroke-linecap="round" stroke-linejoin="round"/>
<path d="M148.261 84.4881C154.304 86.8514 154.49 95.1237 144.746 96.4794C129.463 98.6057 125.691 78.1292 137.404 66.9797C149.747 55.2302 157.169 78.0909 143.638 79.0538C129.986 80.0253 125.57 57.5462 134.732 53.4641" stroke="#EA07FF" stroke-width="1.73045" stroke-linecap="round" stroke-linejoin="round"/>
<defs>
<clipPath id="clip0_2_6299">
<rect width="13.4031" height="13.4031" fill="white" transform="translate(136.292 87.642)"/>
</clipPath>
</defs>
</svg>
