<svg width="161" height="161" viewBox="0 0 161 161" fill="none" xmlns="http://www.w3.org/2000/svg">
<mask id="mask0_2_1454" style="mask-type:alpha" maskUnits="userSpaceOnUse" x="23" y="27" width="118" height="97">
<path fill-rule="evenodd" clip-rule="evenodd" d="M130.3 114.661C127.894 123.596 106.271 123.319 83.164 123.023C78.9704 122.969 74.7279 122.915 70.5426 122.915C34.4646 122.915 23.1762 106.249 23.1763 79.8278C23.1764 53.4062 47.7322 16.2025 85.2066 30.0546C89.7337 31.728 93.3869 33.6195 96.3526 35.6998C98.8644 35.1295 101.914 35.0995 105.567 35.7095C151.383 43.362 143.986 98.1436 130.3 114.661Z" fill="#D2E5CF"/>
</mask>
<g mask="url(#mask0_2_1454)">
<rect width="189.496" height="168.594" transform="matrix(-1 0 0 1 170.121 -10.562)" fill="#D2E5CF"/>
</g>
<rect x="130.986" y="85.1289" width="24.0138" height="18.4292" rx="4.46769" fill="#ECECF0"/>
<g clip-path="url(#clip0_2_1454)">
<path fill-rule="evenodd" clip-rule="evenodd" d="M136.851 94.3439C136.851 90.9512 139.601 88.2009 142.994 88.2009C146.386 88.2009 149.137 90.9512 149.137 94.3439C149.137 97.7367 146.386 100.487 142.994 100.487C139.601 100.487 136.851 97.7367 136.851 94.3439Z" fill="#AFAFB5"/>
<path fill-rule="evenodd" clip-rule="evenodd" d="M145.959 92.1354C146.178 92.3535 146.178 92.7071 145.959 92.9252L142.493 96.5552C142.275 96.7733 141.921 96.7733 141.703 96.5552L140.028 94.8798C139.81 94.6617 139.81 94.3081 140.028 94.09C140.246 93.8719 140.6 93.8719 140.818 94.09L142.098 95.3705L145.17 92.1354C145.388 91.9173 145.741 91.9173 145.959 92.1354Z" fill="#E5E5EB"/>
</g>
<rect x="0.5" y="45.5312" width="45.3523" height="25.8062" rx="3.96769" fill="#ECECF0"/>
<rect x="0.5" y="45.5312" width="45.3523" height="25.8062" rx="3.96769" stroke="#16161A"/>
<ellipse cx="6.33017" cy="51.3605" rx="1.86247" ry="1.86154" fill="#54CD83"/>
<rect x="11.1694" y="50.059" width="29.5985" height="2.79231" rx="1.11692" fill="#D4D4D9"/>
<ellipse cx="6.33017" cy="58.4343" rx="1.86247" ry="1.86154" fill="#838DEB"/>
<rect x="11.7276" y="57.317" width="17.3123" height="2.79231" rx="1.11692" fill="#D4D4D9"/>
<ellipse cx="6.33017" cy="65.5082" rx="1.86247" ry="1.86154" fill="#64B5F6"/>
<rect x="11.5434" y="64.2071" width="24.5723" height="2.79231" rx="1.11692" fill="#D4D4D9"/>
<rect x="127.875" y="125.064" width="24.3935" height="18.488" rx="4.22437" fill="#D2E5CF"/>
<rect x="127.875" y="125.064" width="24.3935" height="18.488" rx="4.22437" stroke="#16161A"/>
<path d="M139.548 130.595C139.768 130.17 140.376 130.17 140.596 130.595L141.488 132.315C141.571 132.475 141.722 132.588 141.898 132.623L143.776 132.992C144.225 133.081 144.407 133.626 144.101 133.967L142.756 135.463C142.641 135.59 142.588 135.76 142.609 135.93L142.829 137.714C142.891 138.222 142.323 138.564 141.904 138.27L140.411 137.223C140.207 137.08 139.936 137.08 139.733 137.223L138.24 138.27C137.821 138.564 137.252 138.222 137.315 137.714L137.535 135.93C137.556 135.76 137.502 135.59 137.388 135.463L136.043 133.967C135.736 133.626 135.918 133.081 136.368 132.992L138.245 132.623C138.421 132.588 138.572 132.475 138.655 132.315L139.548 130.595Z" fill="#009535" stroke="#009535" stroke-width="0.885819" stroke-linecap="round" stroke-linejoin="round"/>
<path d="M61.0483 126.942L21.1545 127.007C17.6835 127.007 14.8697 124.193 14.8697 120.722V87.589C14.8697 84.118 17.6835 81.3042 21.1545 81.3042L61.0483 81.2393C64.5193 81.2393 67.3331 84.0531 67.3331 87.5241V120.657C67.3331 124.128 64.5193 126.942 61.0483 126.942Z" fill="white"/>
<path d="M61.0483 126.942L21.1545 127.007C17.6835 127.007 14.8697 124.193 14.8697 120.722V87.589C14.8697 84.118 17.6835 81.3042 21.1545 81.3042L61.0483 81.2393C64.5193 81.2393 67.3331 84.0531 67.3331 87.5241V120.657C67.3331 124.128 64.5193 126.942 61.0483 126.942Z" stroke="black" stroke-width="2.7043" stroke-miterlimit="10"/>
<path d="M115.381 129.253C100.128 121.207 92.1202 111.189 88.5644 102.369" stroke="black" stroke-width="18.9301" stroke-linecap="round" stroke-linejoin="round"/>
<path d="M115.381 129.253C100.128 121.207 92.1202 111.189 88.5644 102.369" stroke="white" stroke-width="13.5215" stroke-linecap="round" stroke-linejoin="round"/>
<path d="M109.807 116.351C100.227 119.937 99.2564 128.16 99.2564 128.16" stroke="black" stroke-width="2.7043"/>
<path d="M100.024 106.643C91.2143 105.275 87.4929 116.151 87.4929 116.151" stroke="black" stroke-width="2.7043"/>
<path d="M115.051 135.492C89.0191 136.024 77.661 128.858 77.9677 115.501" stroke="black" stroke-width="18.9301"/>
<path d="M115.051 135.492C89.0191 136.024 77.661 128.858 77.9677 115.501" stroke="white" stroke-width="13.5215"/>
<path d="M106.299 127.778C106.299 127.778 99.4297 131.426 101.896 142.867" stroke="black" stroke-width="2.7043"/>
<path d="M96.0224 126.022C96.0224 126.022 89.4236 128.318 88.509 140.435" stroke="black" stroke-width="2.7043"/>
<path d="M116.247 123.987L111.406 134.368C109.937 137.519 111.3 141.263 114.45 142.732L119.673 145.168C122.823 146.637 126.568 145.274 128.037 142.123L132.878 131.742C135.019 127.149 133.033 121.69 128.44 119.549C123.848 117.407 118.389 119.394 116.247 123.987Z" fill="white"/>
<path d="M116.247 123.987L111.406 134.368C109.937 137.519 111.3 141.263 114.45 142.732L119.673 145.168C122.823 146.637 126.568 145.274 128.037 142.123L132.878 131.742C135.019 127.149 133.033 121.69 128.44 119.549C123.848 117.407 118.389 119.394 116.247 123.987Z" stroke="black" stroke-width="2.7043" stroke-miterlimit="10"/>
<path d="M82.4956 130.521L49.9177 130.588C40.2672 130.588 38.0291 126.027 38.0291 119.502L37.992 91.9086C37.992 85.0059 43.5878 79.4102 50.4905 79.4102L79.1739 79.3867C92.3998 79.3867 97.165 90.1325 97.165 97.0352L97.1285 116.527C97.1285 124.982 95.9878 130.521 82.4956 130.521Z" fill="white"/>
<path d="M82.4956 130.521L49.9177 130.588C40.2672 130.588 38.0291 126.027 38.0291 119.502L37.992 91.9086C37.992 85.0059 43.5878 79.4102 50.4905 79.4102L79.1739 79.3867C92.3998 79.3867 97.165 90.1325 97.165 97.0352L97.1285 116.527C97.1285 124.982 95.9878 130.521 82.4956 130.521Z" stroke="black" stroke-width="2.7043" stroke-miterlimit="10"/>
<path d="M83.2748 138.602C57.243 139.134 45.8849 131.968 46.1916 118.611" stroke="black" stroke-width="18.9301"/>
<path d="M83.2748 138.602C57.243 139.134 45.8849 131.968 46.1916 118.611" stroke="white" stroke-width="13.5215"/>
<path d="M39.6655 116.418L39.5303 120.474L52.2234 129.429L65.4363 131.701C65.4363 131.701 61.7731 129.872 62.2585 128.067C62.7415 126.27 66.8437 127.776 66.8437 127.776L63.6272 119.19L39.6655 116.418Z" fill="white"/>
<path d="M74.1185 130.889C74.1185 130.889 65.6268 134.672 68.0926 146.113" stroke="black" stroke-width="2.7043"/>
<path d="M64.2475 129.13C64.2475 129.13 55.0796 130.074 54.165 142.191" stroke="black" stroke-width="2.7043"/>
<path d="M90.3708 104.222C90.9678 104.222 91.4549 104.707 91.4579 105.304L91.5146 116.526C91.5176 117.123 91.0354 117.611 90.4384 117.614L66.911 117.738C66.314 117.741 65.8268 117.259 65.8239 116.662L65.7671 105.304C65.7641 104.707 66.2464 104.222 66.8434 104.222H90.3708Z" fill="white"/>
<path d="M90.3708 104.222C90.9678 104.222 91.4549 104.707 91.4579 105.304L91.5146 116.526C91.5176 117.123 91.0354 117.611 90.4384 117.614L66.911 117.738C66.314 117.741 65.8268 117.259 65.8239 116.662L65.7671 105.304C65.7641 104.707 66.2464 104.222 66.8434 104.222H90.3708Z" stroke="black" stroke-width="2.16344" stroke-linecap="round" stroke-linejoin="round"/>
<path d="M83.4331 114.709H89.011V113.457H85.2556V113.422L88.9108 108.465V107.484H83.5181V108.731H87.1032V108.771L83.4331 113.723V114.709Z" fill="#3D9332"/>
<path d="M82.3534 113.457H79.1936V107.483H77.6815V114.709H82.3534V113.457Z" fill="#3D9332"/>
<path d="M71.7936 111.992L70.1458 110.344L71.8094 108.681" stroke="#3C9231" stroke-width="0.846012" stroke-miterlimit="10"/>
<path d="M72.5862 113.512L74.2339 111.864L72.5703 110.201" stroke="#3C9231" stroke-width="0.846012" stroke-miterlimit="10"/>
<path d="M75.9159 111.163C75.9159 113.247 74.2265 114.936 72.1425 114.936C70.0585 114.936 68.3691 113.247 68.3691 111.163C68.3691 109.079 70.0585 107.389 72.1425 107.389C74.2265 107.389 75.9159 109.079 75.9159 111.163Z" stroke="#3C9231" stroke-width="0.846012"/>
<path d="M70.5784 15.0479C43.9527 14.2623 27.4448 34.6016 27.4448 58.7223C27.4448 87.2527 46.8033 97.6599 70.5784 99.1516C92.1286 100.504 104.028 94.0134 108.303 57.911C111.41 31.6767 98.0781 15.8592 70.5784 15.0479Z" fill="white"/>
<path d="M70.5784 15.0479C43.9527 14.2623 27.4448 34.6016 27.4448 58.7223C27.4448 87.2527 46.8033 97.6599 70.5784 99.1516C92.1286 100.504 104.028 94.0134 108.303 57.911C111.41 31.6767 98.0781 15.8592 70.5784 15.0479Z" stroke="black" stroke-width="2.7043" stroke-miterlimit="10"/>
<path d="M80.3134 93.0669C60.7584 93.3374 43.9823 87.24 42.7237 63.8605C41.8283 47.2291 53.1864 26.9388 80.043 26.8117C108.624 26.6765 113.763 44.1192 113.576 63.0493C113.387 82.2522 99.4666 92.8022 80.3134 93.0669Z" fill="black"/>
<path d="M34.1215 45.3376C26.4297 45.3376 20.1944 51.694 20.1944 59.5351C20.1944 67.3763 26.4297 73.7327 34.1215 73.7327C41.8133 73.7327 46.8317 67.241 46.8317 59.3999C46.8317 51.5588 41.8133 45.3376 34.1215 45.3376Z" fill="white"/>
<path d="M34.1215 45.3376C26.4297 45.3376 20.1944 51.694 20.1944 59.5351C20.1944 67.3763 26.4297 73.7327 34.1215 73.7327C41.8133 73.7327 46.8317 67.241 46.8317 59.3999C46.8317 51.5588 41.8133 45.3376 34.1215 45.3376Z" stroke="black" stroke-width="2.7043"/>
<path d="M30.6057 46.6901C26.126 46.6006 20.1942 51.6944 20.1942 59.5356C20.1942 67.3767 26.6845 73.057 30.8761 73.1922C36.364 73.3694 40.7468 66.2963 40.7468 59.2651C40.7468 53.9901 37.3664 46.8254 30.6057 46.6901Z" fill="white"/>
<path d="M30.6057 46.6901C26.126 46.6006 20.1942 51.6944 20.1942 59.5356C20.1942 67.3767 26.6845 73.057 30.8761 73.1922C36.364 73.3694 40.7468 66.2963 40.7468 59.2651C40.7468 53.9901 37.3664 46.8254 30.6057 46.6901Z" stroke="black" stroke-width="2.7043"/>
<path d="M78.89 117.138C61.8049 114.793 50.8537 108.118 44.4955 101.046" stroke="black" stroke-width="18.9301" stroke-linecap="round" stroke-linejoin="round"/>
<path d="M78.89 117.138C61.8049 114.793 50.8537 108.118 44.4955 101.046" stroke="white" stroke-width="13.5215" stroke-linecap="round" stroke-linejoin="round"/>
<path d="M69.2405 106.92C61.4649 113.566 63.3653 121.625 63.3653 121.625" stroke="black" stroke-width="2.7043"/>
<path d="M56.7274 101.144C47.9807 102.871 48.2036 114.364 48.2036 114.364" stroke="black" stroke-width="2.7043"/>
<path d="M115.325 117.77L122.17 118.541" stroke="black" stroke-width="9.19461" stroke-linecap="round" stroke-linejoin="round"/>
<path d="M115.325 117.77L122.17 118.541" stroke="white" stroke-width="5.94945" stroke-linecap="round" stroke-linejoin="round"/>
<path d="M121.867 119.353L124.095 118.249" stroke="black" stroke-width="9.19461" stroke-linecap="round" stroke-linejoin="round"/>
<path d="M121.867 119.353L124.095 118.249" stroke="white" stroke-width="5.94945" stroke-linecap="round" stroke-linejoin="round"/>
<path d="M111.336 112.261L109.409 126.594C109.409 126.594 96.9354 127.101 92.1426 126.888C85.8475 126.609 88.6197 107.697 92.4057 107.934C95.9822 108.158 96.0706 112.107 96.0706 112.107L111.336 112.261Z" fill="white"/>
<path d="M111.336 112.261L109.409 126.594C109.409 126.594 96.9354 127.101 92.1426 126.888C85.8475 126.609 88.6197 107.697 92.4057 107.934C95.9822 108.158 96.0706 112.107 96.0706 112.107L111.336 112.261Z" stroke="black" stroke-width="1.89301" stroke-linecap="round" stroke-linejoin="round"/>
<path d="M110.321 113.038C110.321 113.038 112.278 108.362 117.47 109.001C122.123 109.544 121.867 115.466 121.867 115.466" stroke="black" stroke-width="9.19461" stroke-linecap="round" stroke-linejoin="round"/>
<path d="M110.321 113.038C110.321 113.038 112.278 108.362 117.47 109.001C122.123 109.544 121.867 115.466 121.867 115.466" stroke="white" stroke-width="5.94945" stroke-linecap="round" stroke-linejoin="round"/>
<path d="M108.564 110.367L112.891 114.153L112.472 115.109L114.108 116.503L110.491 119.223L103.24 115.099L104.632 112.826L108.564 110.367Z" fill="white"/>
<path d="M105.182 113.038C105.182 113.038 107.016 108.561 112.209 110.034C116.779 111.34 115.876 116.953 115.876 116.953" stroke="black" stroke-width="9.19461" stroke-linecap="round" stroke-linejoin="round"/>
<path d="M105.182 113.038C105.182 113.038 107.016 108.561 112.209 110.034C116.779 111.34 115.876 116.953 115.876 116.953" stroke="white" stroke-width="5.94945" stroke-linecap="round" stroke-linejoin="round"/>
<path d="M103.425 110.367L107.752 114.153L107.333 115.109L108.969 116.503L105.352 119.224L98.1011 115.1L99.4925 112.826L103.425 110.367Z" fill="white"/>
<path d="M100.045 113.037C100.045 113.037 102.561 107.901 107.767 110.565C112.459 112.976 112.825 113.556 112.825 113.556" stroke="black" stroke-width="9.19461" stroke-linecap="round" stroke-linejoin="round"/>
<path d="M100.045 113.037C100.045 113.037 102.561 107.901 107.767 110.565C112.459 112.976 112.825 113.556 112.825 113.556" stroke="white" stroke-width="5.94945" stroke-linecap="round" stroke-linejoin="round"/>
<path d="M97.51 111.685L102.614 114.152L102.094 115.176C102.094 115.176 101.717 115.914 102.426 116.293C103.29 116.755 103.696 116.063 103.696 116.063L102.141 119.054L95.1267 116.18L95.1221 111.801C95.1221 111.801 95.3128 112.699 96.3271 112.796C97.3418 112.893 97.51 111.685 97.51 111.685Z" fill="white"/>
<path d="M96.9366 116.524L103.744 117.583" stroke="black" stroke-width="9.19461" stroke-linecap="round" stroke-linejoin="round"/>
<path d="M96.9366 116.524L103.744 117.583" stroke="white" stroke-width="5.94945" stroke-linecap="round" stroke-linejoin="round"/>
<path d="M103.406 118.38L105.679 117.371" stroke="black" stroke-width="9.19461" stroke-linecap="round" stroke-linejoin="round"/>
<path d="M103.406 118.38L105.679 117.371" stroke="white" stroke-width="5.94945" stroke-linecap="round" stroke-linejoin="round"/>
<path d="M102.158 113.669L101.852 123.542C101.852 123.542 77.4478 126.397 72.6682 125.982C66.3905 125.438 70.6802 105.332 74.4529 105.728C78.0167 106.103 77.9385 110.053 77.9385 110.053L102.158 113.669Z" fill="white"/>
<path d="M102.158 113.669L101.852 123.542C101.852 123.542 77.4478 126.397 72.6682 125.982C66.3905 125.438 70.6802 105.332 74.4529 105.728C78.0167 106.103 77.9385 110.053 77.9385 110.053L102.158 113.669Z" stroke="black" stroke-width="1.89301" stroke-linecap="round" stroke-linejoin="round"/>
<path d="M92.1384 111.584C92.1384 111.584 94.6773 106.881 99.7853 109.166C104.334 111.219 102.918 115.118 102.918 115.118" stroke="black" stroke-width="9.19461" stroke-linecap="round" stroke-linejoin="round"/>
<path d="M92.1384 111.584C92.1384 111.584 94.6773 106.881 99.7853 109.166C104.334 111.219 102.918 115.118 102.918 115.118" stroke="white" stroke-width="5.94945" stroke-linecap="round" stroke-linejoin="round"/>
<path d="M90.4948 108.844L94.6582 112.809L94.1994 113.746L95.775 115.208L92.0465 117.774L84.9758 113.347L86.4618 111.135L90.4948 108.844Z" fill="white"/>
<path d="M87.0052 111.367C87.0052 111.367 89.8602 106.132 94.9376 109.401C99.549 112.37 101.036 110.809 101.036 110.809" stroke="black" stroke-width="9.19461" stroke-linecap="round" stroke-linejoin="round"/>
<path d="M87.0052 111.367C87.0052 111.367 89.8602 106.132 94.9376 109.401C99.549 112.37 101.036 110.809 101.036 110.809" stroke="white" stroke-width="5.94945" stroke-linecap="round" stroke-linejoin="round"/>
<path d="M85.3611 108.625L89.5245 112.59L89.0657 113.528L90.6413 114.99L86.9128 117.555L79.8421 113.129L81.3281 110.916L85.3611 108.625Z" fill="white"/>
<path d="M81.8707 111.151C81.8707 111.151 85.183 106.063 90.1165 107.371C94.3659 108.498 96.2139 108 96.2139 108" stroke="black" stroke-width="9.19461" stroke-linecap="round" stroke-linejoin="round"/>
<path d="M81.8707 111.151C81.8707 111.151 85.183 106.063 90.1165 107.371C94.3659 108.498 96.2139 108 96.2139 108" stroke="white" stroke-width="5.94945" stroke-linecap="round" stroke-linejoin="round"/>
<path d="M79.3953 109.694L84.3911 112.375L83.8281 113.376C83.8281 113.376 83.4204 114.097 84.1128 114.506C84.9569 115.004 85.3913 114.33 85.3913 114.33L83.7116 117.252L76.8246 114.086L77.0047 109.71C77.0047 109.71 77.1573 110.615 78.1667 110.755C79.1764 110.894 79.3953 109.694 79.3953 109.694Z" fill="white"/>
<g opacity="0.5">
<path d="M128.607 49.259C124.166 49.2021 120.294 52.7742 120.326 57.2199C120.363 62.3378 124.053 65.4135 128.607 65.4135C133.161 65.4135 136.908 62.1862 136.888 57.2199C136.87 52.9032 133.44 49.321 128.607 49.259Z" fill="#3B9130"/>
<path d="M128.607 49.259C124.166 49.2021 120.294 52.7742 120.326 57.2199C120.363 62.3378 124.053 65.4135 128.607 65.4135C133.161 65.4135 136.908 62.1862 136.888 57.2199C136.87 52.9032 133.44 49.321 128.607 49.259Z" stroke="#3B9130" stroke-width="3.56967" stroke-linejoin="round"/>
<path d="M128.608 64.8692C125.129 64.8692 120.884 62.4353 120.884 57.5676C120.884 54.1473 123.56 50.0242 128.608 50.0496C133.973 50.0767 136.352 54.1473 136.352 57.5676C136.352 62.4353 131.758 64.8692 128.608 64.8692Z" fill="black"/>
</g>
<path d="M128.607 60.5752C124.722 60.5183 121.334 64.0904 121.362 68.5361C121.394 73.654 124.623 76.7297 128.607 76.7297C132.591 76.7297 135.87 73.5024 135.852 68.5361C135.837 64.2194 132.836 60.6372 128.607 60.5752Z" fill="#3B9130"/>
<path d="M128.607 60.5752C124.722 60.5183 121.334 64.0904 121.362 68.5361C121.394 73.654 124.623 76.7297 128.607 76.7297C132.591 76.7297 135.87 73.5024 135.852 68.5361C135.837 64.2194 132.836 60.6372 128.607 60.5752Z" stroke="#3B9130" stroke-width="3.339" stroke-linejoin="round"/>
<path d="M128.608 76.1874C125.564 76.1874 121.849 73.7535 121.849 68.8858C121.849 65.4655 124.191 61.3424 128.608 61.3678C133.301 61.3949 135.383 65.4655 135.383 68.8858C135.383 73.7535 131.364 76.1874 128.608 76.1874Z" fill="black"/>
<path d="M128.607 90.921C131.9 90.8641 134.771 94.4362 134.747 98.8819C134.72 104 131.984 107.075 128.607 107.075C125.231 107.075 122.452 103.848 122.467 98.8819C122.481 94.5651 125.024 90.9829 128.607 90.921Z" fill="#3B9130"/>
<path d="M128.607 90.921C131.9 90.8641 134.771 94.4362 134.747 98.8819C134.72 104 131.984 107.075 128.607 107.075C125.231 107.075 122.452 103.848 122.467 98.8819C122.481 94.5651 125.024 90.9829 128.607 90.921Z" stroke="#3B9130" stroke-width="3.07379" stroke-linejoin="round"/>
<path d="M128.607 106.531C131.186 106.531 134.334 104.097 134.334 99.2295C134.334 95.8093 132.349 91.6862 128.607 91.7116C124.629 91.7386 122.865 95.8093 122.865 99.2295C122.865 104.097 126.271 106.531 128.607 106.531Z" fill="black"/>
<path d="M129.68 100.028L127.634 102.786L125.569 100.001" stroke="#3B9130" stroke-width="1.53689" stroke-linejoin="round"/>
<path d="M131.565 98.7011L129.52 95.9424L127.455 98.7277" stroke="#3B9130" stroke-width="1.53689" stroke-linejoin="round"/>
<path d="M128.608 109.857C133.049 109.8 136.921 113.372 136.889 117.818C136.852 122.936 133.162 126.012 128.608 126.012C124.055 126.012 120.307 122.784 120.328 117.818C120.345 113.501 123.775 109.919 128.608 109.857Z" fill="#3B9130"/>
<path d="M128.608 109.857C133.049 109.8 136.921 113.372 136.889 117.818C136.852 122.936 133.162 126.012 128.608 126.012C124.055 126.012 120.307 122.784 120.328 117.818C120.345 113.501 123.775 109.919 128.608 109.857Z" stroke="#3B9130" stroke-width="3.56967" stroke-linejoin="round"/>
<path d="M128.607 125.468C132.086 125.468 136.331 123.034 136.331 118.167C136.331 114.746 133.655 110.623 128.607 110.649C123.243 110.676 120.863 114.746 120.863 118.167C120.863 123.034 125.457 125.468 128.607 125.468Z" fill="black"/>
<path d="M130.055 118.964L127.296 121.722L124.511 118.937" stroke="#3B9130" stroke-width="1.78484" stroke-linejoin="round"/>
<path d="M132.596 117.639L129.837 114.881L127.052 117.666" stroke="#3B9130" stroke-width="1.78484" stroke-linejoin="round"/>
<g opacity="0.551872">
<path d="M95.6388 23.5624C95.6388 23.5624 57.7136 17.6671 37.639 64.739C23.1179 98.7881 30.3407 123.751 30.3407 123.751H109.961L152.667 94.6747L95.6388 23.5624Z" fill="url(#paint0_linear_2_1454)"/>
</g>
<path d="M135.938 125.274L99.9709 125.139L115.816 94.7205L151.783 94.8558L135.938 125.274Z" stroke="black" stroke-width="5.40859" stroke-linecap="round" stroke-linejoin="round"/>
<path d="M135.938 125.274L99.9709 125.139L115.816 94.7205L151.783 94.8558L135.938 125.274Z" fill="#F3BA2D"/>
<path d="M137.83 125.339H74.8202V127.503H137.83V125.339Z" stroke="black" stroke-width="5.40859" stroke-linecap="round" stroke-linejoin="round"/>
<path d="M137.83 125.339H74.8202V127.503H137.83V125.339Z" fill="#FD8214"/>
<path d="M130.59 107.395C129.639 106.445 127.884 106.659 126.669 107.874C125.455 109.088 125.241 110.843 126.191 111.794C127.142 112.744 128.897 112.53 130.111 111.316C131.326 110.101 131.54 108.346 130.59 107.395Z" stroke="black" stroke-width="5.40859"/>
<path d="M130.59 107.395C129.639 106.445 127.884 106.659 126.669 107.874C125.455 109.088 125.241 110.843 126.191 111.794C127.142 112.744 128.897 112.53 130.111 111.316C131.326 110.101 131.54 108.346 130.59 107.395Z" fill="#FD8214"/>
<path d="M74.7495 134.862L79.5904 145.244C81.0593 148.394 84.8041 149.757 87.9542 148.288L93.1769 145.853C96.3271 144.384 97.6901 140.639 96.2211 137.489L91.38 127.107C89.2384 122.514 83.7797 120.527 79.1871 122.669C74.5946 124.81 72.6079 130.269 74.7495 134.862Z" fill="white"/>
<path d="M74.7495 134.862L79.5904 145.244C81.0593 148.394 84.8041 149.757 87.9542 148.288L93.1769 145.853C96.3271 144.384 97.6901 140.639 96.2211 137.489L91.38 127.107C89.2384 122.514 83.7797 120.527 79.1871 122.669C74.5946 124.81 72.6079 130.269 74.7495 134.862Z" stroke="black" stroke-width="2.7043" stroke-miterlimit="10"/>
<defs>
<linearGradient id="paint0_linear_2_1454" x1="55.8963" y1="74.4574" x2="133.358" y2="117.391" gradientUnits="userSpaceOnUse">
<stop stop-color="#00F6FF"/>
<stop offset="0.3" stop-color="#00CFFF"/>
<stop offset="1" stop-color="#00A8FF"/>
</linearGradient>
<clipPath id="clip0_2_1454">
<rect width="13.4031" height="13.4031" fill="white" transform="translate(136.292 87.642)"/>
</clipPath>
</defs>
</svg>
