<svg width="250" height="250" viewBox="0 0 250 250" fill="none" xmlns="http://www.w3.org/2000/svg">
<g clip-path="url(#clip0_8_2967)">
<path d="M102.1 121.7C100.1 121.7 98.4 120.3 97.9 118.3L85.8 62.6999L47.3 79.5999C45.1 80.4999 42.6 79.6 41.7 77.4C40.8 75.1999 41.7 72.7 43.9 71.8L87.2 52.8999C89.4 51.9999 91.9 52.8999 92.8 55.0999C92.9 55.3999 93 55.5999 93.1 55.8999L105.5 112.8L125.4 110.7C127.8 110.4 129.9 112.2 130.1 114.5C130.4 116.9 128.6 119 126.3 119.2L102.6 121.8H102.1V121.7Z" fill="white"/>
<path d="M150.6 114.8C148.2 114.8 146.3 112.9 146.3 110.5C146.3 108.6 147.6 106.9 149.4 106.4L217.7 86.4999C220 85.7999 222.3 87.0999 223 89.3999C223.7 91.6999 222.4 93.9999 220.1 94.6999L151.8 114.6C151.4 114.7 151 114.8 150.6 114.8Z" fill="white"/>
<path d="M215.6 179.9H214.9C212.6 179.5 211 177.3 211.4 175L224.3 98.7C224.7 96.3 226.9 94.7 229.3 95.1C231.7 95.5 233.3 97.7 232.9 100.1L220 176.3C219.6 178.5 217.7 180 215.6 179.9Z" fill="white"/>
<path d="M197.3 188.5C196.1 188.5 195 188 194.2 187.1L139.9 128.2C138.1 126.6 138 123.9 139.5 122.2C141.1 120.4 143.8 120.3 145.5 121.8C145.7 122 146 122.3 146.2 122.5L200.5 181.4C202.1 183.1 202 185.8 200.3 187.4C199.5 188.1 198.5 188.5 197.4 188.5H197.3Z" fill="white"/>
<path d="M25.2 100.8C12.6 100.8 2.5 90.5 2.5 77.9C2.5 65.3 12.8 55.2 25.4 55.2C38 55.2 48.1 65.4999 48.1 78.0999C48.1 83.3999 46.2 88.5 42.9 92.5C39 97.2 33.4 100.1 27.4 100.6C26.6 100.7 25.9 100.8 25.2 100.8ZM25.2 63.5H23.9C16.1 64.4 10.4 71.3999 11.3 79.1999C12.1 86.9999 19.2 92.7 27 91.8C30.6 91.4 33.9 89.7 36.2 87C41.3 81 40.7 72.1 34.7 66.9C32 64.6 28.7 63.4 25.2 63.5Z" fill="white"/>
<path d="M231.3 103.2C222.4 103.1 215.3 95.9 215.3 87C215.4 78.1 222.6 71 231.5 71C240.4 71.1 247.5 78.3 247.5 87.2C247.5 93.9 243.3 99.9 237 102.2C235.2 102.9 233.2 103.2 231.3 103.2ZM231.3 79.6C227.1 79.6 223.8 82.9 223.7 87.1C223.7 91.3 227 94.6 231.2 94.7C232.1 94.7 233 94.5 233.9 94.2C237.8 92.7 239.7 88.4 238.3 84.5C237.2 81.6 234.4 79.6 231.3 79.6Z" fill="white"/>
<path d="M209.7 204C200.8 204 193.6 196.9 193.6 188C193.6 179.1 200.7 171.9 209.6 171.9C218.5 171.9 225.7 179 225.7 187.9C225.7 194.6 221.5 200.7 215.2 203C213.5 203.7 211.6 204 209.7 204ZM209.7 180.4C205.5 180.4 202.2 183.8 202.2 187.9C202.2 192.1 205.6 195.4 209.7 195.4C213.9 195.4 217.2 192 217.2 187.9C217.2 187 217 186.1 216.7 185.3C215.7 182.4 212.9 180.4 209.7 180.4Z" fill="white"/>
<path d="M139.4 130.1C130.5 130 123.4 122.8 123.5 114C123.6 105.2 130.8 98 139.6 98.1C148.4 98.2 155.6 105.4 155.5 114.2C155.5 117.9 154.1 121.6 151.7 124.4C148.7 128.1 144.1 130.1 139.4 130.1ZM139.4 106.6H138.7C134.6 106.8 131.4 110.3 131.6 114.4C131.8 118.5 135.3 121.7 139.4 121.5C143.5 121.3 146.7 117.8 146.5 113.7C146.3 109.8 143.2 106.7 139.4 106.6Z" fill="white"/>
<path d="M126.9 204.6C145.2 204.6 145.3 176.1 126.9 176.1C108.5 176.1 108.5 204.6 126.9 204.6Z" fill="white"/>
<path d="M100.6 216.4C109.8 216.4 109.8 202.2 100.6 202.2C91.4 202.2 91.4 216.4 100.6 216.4Z" fill="white"/>
<path d="M138.9 47.8C148.1 47.8 148.1 33.6 138.9 33.6C129.7 33.6 129.7 47.8 138.9 47.8Z" fill="white"/>
</g>
<defs>
<clipPath id="clip0_8_2967">
<rect width="250" height="250" fill="white"/>
</clipPath>
</defs>
</svg>
