<svg width="250" height="250" viewBox="0 0 250 250" fill="none" xmlns="http://www.w3.org/2000/svg">
<g clip-path="url(#clip0_8_2742)">
<path d="M228.1 97.5C237.7 97.5 237.7 82.7 228.1 82.7C218.5 82.7 218.5 97.5 228.1 97.5Z" fill="white"/>
<path d="M34.8 73.7C37.9 73.5 40.2 70.8 40 67.7C39.8 64.9 37.6 62.7 34.8 62.5C31.7 62.7 29.4 65.4 29.6 68.5C29.9 71.3 32.1 73.5 34.8 73.7Z" fill="white"/>
<path d="M159.2 239.8C162.3 239.6 164.6 236.9 164.4 233.8C164.2 231 162 228.8 159.2 228.6C156.1 228.8 153.8 231.5 154 234.6C154.2 237.4 156.4 239.6 159.2 239.8Z" fill="white"/>
<path d="M217.8 69.5C201.4 69.5 188.1 56.2 188.1 39.8C188.1 23.4 201.4 10.1 217.8 10.1C234.2 10.1 247.5 23.4 247.5 39.8C247.5 56.2 234.2 69.5 217.8 69.5ZM217.8 19.1C206.3 19.1 197 28.4 197 39.9C197 51.4 206.3 60.7 217.8 60.7C229.3 60.7 238.6 51.4 238.6 39.9C238.6 28.4 229.3 19.1 217.8 19.1Z" fill="white"/>
<path d="M204 118C205.3 117.9 206.7 118.4 207.6 119.4C209.2 121.1 209.2 123.8 207.5 125.5C206.6 126.4 205.6 127.2 204.6 128C204.7 129.3 204.7 130.7 204.7 132C204.7 176.4 168.7 212.4 124.3 212.4C89.5 212.4 59.8 190.3 48.7 159.3C45.7 162.8 49 170.4 46.5 175.8C61.8 202.9 90.9 221.2 124.3 221.2C173.6 221.2 213.6 181.2 213.6 131.9C213.6 124.1 212.6 116.6 210.7 109.4L208.7 109.5C208.8 109.5 207 113.5 204 118Z" fill="white"/>
<path d="M44.9 104C45 102.1 44.8 97.6 43.2 94.6C41 99.4 39.2 104.5 37.8 109.8C42.9 108 44.8 105.6 44.9 104Z" fill="white"/>
<path d="M124.4 51.5C134.6 51.5 144.3 53.4 153.2 56.9C159.6 55.1 166 55.5999 166 55.5999C172.9 60.1999 173 63.6999 171.3 66.6999C175.4 69.5999 179.2 72.8999 182.6 76.5999C183 74.2999 183 71.6999 183.1 70.0999C183.2 69.0999 183.8 67.8 184.9 66.3C169 51.6 147.7 42.7 124.4 42.7C108.8 42.7 94.1 46.7 81.4 53.7C85.3 55.1 88.2 56.9999 90.4 59.0999C100.7 54.1999 112.2 51.5 124.4 51.5Z" fill="white"/>
<path d="M178.8 81.7999C174.5 81.7999 165.4 80.0999 165.6 74.8999C165.7 72.2999 169.4 69.6999 171.2 66.6999C165.7 62.6999 159.6 59.3999 153.1 56.8999C152.7 56.9999 152.3 57.0999 151.9 57.2999C150.5 55.5999 148.2 55.0999 146.2 56.1999C141.7 58.5999 138.1 62.4999 136 67.0999C133.2 74.1999 133.6 82.1999 137 88.9999C138.5 92.2999 140.5 95.3999 142.9 98.1999C145.3 101 146 102.2 145.9 104C145.9 104.7 145.7 105.5 145.3 106.1C144.5 107.1 141.9 106.8 137.6 106.3C131.2 105.1 124.6 105.3 118.3 107C110.5 108.9 103.9 114 100.2 121.1C95.9 130.6 97.3 141.7 104 149.7C106.4 152.4 109.5 154.4 112.9 155.6C114.9 156.3 116.7 157.4 118.2 159C121.5 163.2 122.8 168.7 121.5 174C121.4 174.3 121.1 174.7 121.1 175C120.3 176.9 119.8 178.9 119.7 180.9C119.6 185 120.7 189 123.1 192.4C126.9 197.9 133 201.3 139.7 201.7H140.5C146.4 201.7 154.6 199.4 162.9 186.3C171.2 173.1 170.6 156.9 170.4 149C170.3 145.9 170 143.3 169.8 141C169.3 135.4 169.2 133.6 170.4 132.4C172.9 129.9 179 130.1 182 130.1C184.1 130.2 186.2 130.4 188.2 130.8C191.8 131.7 195.5 131.7 199.1 130.6C201.1 129.9 203 129 204.8 127.8C203.8 107.9 195.6 89.8999 182.7 76.3999C182.1 79.2999 181.2 81.7999 178.8 81.7999Z" fill="white"/>
<path d="M184.9 66.2C183.8 67.7 183.2 69 183.1 70C183 71.6 183 74.1 182.6 76.5C195.5 90 203.7 108 204.7 127.9C205.7 127.2 206.7 126.4 207.6 125.4C209.2 123.7 209.2 121 207.7 119.3C206.7 118.2 205.4 117.8 204.1 117.9C207 113.4 208.9 109.5 208.9 109.5L210.9 109.4C206.5 92.6 197.3 77.7 184.9 66.2Z" fill="white"/>
<path d="M166 55.5999C166 55.5999 159.6 55.0999 153.2 56.8999C159.7 59.3999 165.7 62.6999 171.3 66.6999C173 63.6999 172.8 60.1999 166 55.5999Z" fill="white"/>
<path d="M49.9 158.4C56.4 154.7 59.7 151.2 59.5 144.7C59.2 138.1 66.9 111.5 75.2 110.7C83.5 109.8 86.6 103.3 85.2 97C83.8 90.7 93.5 80.6999 94.9 79.5999C96 78.6999 98.3 67.2 90.3 59.2C62.9 71.9 44 99.6999 44 131.9C44 141.5 45.7 150.7 48.8 159.3C49 158.9 49.4 158.6 49.9 158.4Z" fill="white"/>
<path d="M48.7 159.3C45.6 150.8 43.9 141.6 43.9 131.9C43.9 99.7 62.9 71.9 90.3 59C88.1 56.8 85.2 54.9 81.3 53.6C64.6 62.8 51.2 77.2 43.2 94.5C44.8 97.6 45 102.1 44.9 103.9C44.8 105.4 42.9 107.9 37.8 109.7C36 116.8 35 124.2 35 131.8C35 147.7 39.2 162.7 46.5 175.7C49.1 170.4 45.7 162.8 48.7 159.3Z" fill="white"/>
<path d="M70 152C68.6 152 67.3 151.4 66.5 150.2C63.5 146.2 61.5 141.6 60.7 136.6C59.9 130.6 60.9 124.4 63.7 119C64.8 116.8 67.5 115.9 69.7 117C71.9 118.1 72.8 120.8 71.7 123C69.8 126.8 69.1 131.1 69.7 135.3C70.2 138.7 71.6 142 73.7 144.7C75.2 146.7 74.8 149.4 72.9 150.9C72.1 151.5 71.2 151.8 70.2 151.8L70 152Z" fill="white"/>
<path d="M7.7 98.8C10.8 98.6 13.1 95.9 12.9 92.8C12.7 90 10.5 87.8 7.7 87.6C4.6 87.8 2.3 90.5 2.5 93.6C2.7 96.4 4.9 98.6 7.7 98.8Z" fill="white"/>
</g>
<defs>
<clipPath id="clip0_8_2742">
<rect width="250" height="250" fill="white"/>
</clipPath>
</defs>
</svg>
