<svg width="250" height="250" viewBox="0 0 250 250" fill="none" xmlns="http://www.w3.org/2000/svg">
<g clip-path="url(#clip0_8_1842)">
<path d="M113.7 96.1C112.6 96.1 111.6 95.6 110.8 94.9C103.8 88 92.9 86.8 84.6 92C82.6 93.4 79.9 92.9 78.5 90.9C77.1 88.9 77.6 86.2 79.6 84.8C79.7 84.7 79.9 84.6 80 84.5C85.2 81.3 91.2 79.8 97.2 80C104.5 80.4 111.4 83.4 116.7 88.4C118.4 90.1 118.5 92.8 116.8 94.6C116 95.4 114.9 95.9 113.8 95.9L113.7 96.1Z" fill="white"/>
<path d="M150.5 174.7C160.662 174.7 168.9 166.462 168.9 156.3C168.9 146.138 160.662 137.9 150.5 137.9C140.338 137.9 132.1 146.138 132.1 156.3C132.1 166.462 140.338 174.7 150.5 174.7Z" fill="white"/>
<path d="M158.3 63.2C160.3 63.2 161.9 61.6 161.9 59.6C161.9 57.6 160.3 56 158.3 56C156.3 56 154.7 57.6 154.7 59.6C154.7 61.6 156.3 63.2 158.3 63.2Z" fill="white"/>
<path d="M96.4 135.5C118.933 135.5 137.2 117.233 137.2 94.7C137.2 72.1668 118.933 53.9 96.4 53.9C73.8668 53.9 55.6 72.1668 55.6 94.7C55.6 117.233 73.8668 135.5 96.4 135.5Z" stroke="white" stroke-width="7.8735" stroke-miterlimit="10"/>
<path d="M150.5 171.8C159.06 171.8 166 164.86 166 156.3C166 147.74 159.06 140.8 150.5 140.8C141.94 140.8 135 147.74 135 156.3C135 164.86 141.94 171.8 150.5 171.8Z" fill="white" stroke="white" stroke-width="5.3091" stroke-miterlimit="10"/>
<path d="M62.2 201.6C38.2 184.6 22.6 156.7 22.6 125C22.6 73.2 64.6 31.2 116.4 31.2C142.1 31.2 165.3 41.5 182.2 58.2C184.4 56.1 187.3 54.6 190.5 54.1C171.8 34.6 145.5 22.4 116.4 22.4C59.7 22.5 13.8 68.4 13.8 125C13.8 163.3 34.8 196.6 65.8 214.2C63.5 210.6 62.1 206.3 62.1 201.8C62.2 201.7 62.2 201.7 62.2 201.6Z" fill="white"/>
<path d="M206.6 76.5C205.2 79.3 202.9 81.6 200.1 83.1C206.4 95.7 210 110 210 125C210 176.8 168 218.8 116.2 218.8C111.2 218.8 106.3 218.4 101.6 217.7C98.6 220.9 94.6 223.2 90.2 224.2C98.5 226.4 107.3 227.6 116.3 227.6C172.9 227.5 218.7 181.7 218.8 125.1C218.8 107.4 214.4 90.9 206.6 76.5Z" fill="white"/>
<path d="M82.7 181.5C70.1 181.5 59.9 191.7 59.8 204.2C71.3 212.4 84.7 218 99.3 220.3C103.2 216.2 105.7 210.6 105.7 204.4C105.6 191.7 95.4 181.5 82.7 181.5Z" stroke="white" stroke-width="7.8735" stroke-miterlimit="10"/>
<path d="M101.6 217.6C87.1 215.3 73.6 209.7 62.1 201.5C62.1 201.6 62.1 201.6 62.1 201.7C62.1 206.3 63.5 210.6 65.8 214.1C73.4 218.4 81.6 221.8 90.2 224C94.6 223.1 98.6 220.8 101.6 217.6Z" fill="white"/>
<path d="M182.1 58.3C179.2 61.1 177.3 65.1 177.3 69.5C177.3 78 184.2 85 192.8 85C195.5 85 197.9 84.3 200.1 83.2C195.5 73.9 189.4 65.5 182.1 58.3Z" stroke="white" stroke-width="7.8735" stroke-miterlimit="10"/>
<path d="M200.1 83.1C202.9 81.6 205.1 79.3 206.6 76.5C202.2 68.4 196.8 60.9 190.4 54.3C187.2 54.8 184.3 56.3001 182.1 58.4001C189.4 65.5001 195.5 73.9 200.1 83.1Z" fill="white"/>
<path d="M224 58.5C233.4 58.5 233.4 43.9 224 43.9C214.6 43.9 214.6 58.5 224 58.5Z" fill="white"/>
<path d="M242.4 64.9C245.4 64.7 247.7 62.1 247.5 59C247.3 56.3 245.1 54.1 242.4 53.9C239.4 54.1 237.1 56.7 237.3 59.8C237.6 62.5 239.7 64.7 242.4 64.9Z" fill="white"/>
<path d="M226 75.3C228 75.3 229.6 73.7 229.6 71.7C229.6 69.7 228 68.1 226 68.1C224 68.1 222.4 69.7 222.4 71.7C222.4 73.7 224 75.3 226 75.3Z" fill="white"/>
<path d="M7.6 197.1C10.6 196.9 12.9 194.3 12.7 191.2C12.5 188.5 10.3 186.3 7.6 186.1C4.6 186.3 2.3 188.9 2.5 192C2.7 194.8 4.9 196.9 7.6 197.1Z" fill="white"/>
</g>
<defs>
<clipPath id="clip0_8_1842">
<rect width="250" height="250" fill="white"/>
</clipPath>
</defs>
</svg>
