<svg xmlns="http://www.w3.org/2000/svg" version="1.1" xmlns:xlink="http://www.w3.org/1999/xlink" xmlns:svgjs="http://svgjs.dev/svgjs" width="1500" height="1500" viewBox="0 0 1500 1500"><rect width="1500" height="1500" fill="#000000"></rect><g transform="matrix(0.6666666666666666,0,0,0.6666666666666666,251.09162039374053,199.11309041835364)"><svg viewBox="0 0 224 247" data-background-color="#ffffff" preserveAspectRatio="xMidYMid meet" height="1654" width="1500" xmlns="http://www.w3.org/2000/svg" xmlns:xlink="http://www.w3.org/1999/xlink"><g id="tight-bounds" transform="matrix(1,0,0,1,-0.24452296819788444,-0.09999999999999432)"><svg viewBox="0 0 224.48904593639577 247.2" height="247.2" width="224.48904593639577"><g><svg viewBox="0 0 224.48904593639577 247.2" height="247.2" width="224.48904593639577"><g><svg viewBox="0 0 224.48904593639577 247.2" height="247.2" width="224.48904593639577"><g><svg viewBox="0 0 224.48904593639577 247.2" height="247.2" width="224.48904593639577"><g id="textblocktransform"><svg viewBox="0 0 224.48904593639577 247.2" height="247.2" width="224.48904593639577" id="textblock"><g><svg viewBox="0 0 224.48904593639577 247.2" height="247.2" width="224.48904593639577"><g transform="matrix(1,0,0,1,0,0)"><svg width="224.48904593639577" viewBox="1.5 -36.5 38.55 42.45" height="247.2" data-palette-color="#000000"><path d="M24.05 5.95L11.05 5.95Q9.9 5.95 9.2 5.53 8.5 5.1 8.05 4L8.05 4 3.15-8.25Q2.7-9.4 2.38-10.23 2.05-11.05 1.85-11.83 1.65-12.6 1.58-13.48 1.5-14.35 1.5-15.55L1.5-15.55 1.5-28.75Q1.5-29.4 1.68-29.85 1.85-30.3 2.2-30.6L2.2-30.6 8.65-36.05Q8.9-36.25 9.33-36.38 9.75-36.5 10.25-36.5L10.25-36.5 18.2-36.5Q19.4-36.5 20.03-35.93 20.65-35.35 20.65-34.2L20.65-34.2 20.65-20.4Q20.65-19.9 20.75-19.45 20.85-19 21-18.5L21-18.5 21.15-18.15 21.15-28.75Q21.15-29.4 21.33-29.85 21.5-30.3 21.85-30.6L21.85-30.6 28.3-36.05Q28.55-36.25 28.98-36.38 29.4-36.5 29.9-36.5L29.9-36.5 37.75-36.5Q39-36.5 39.53-35.95 40.05-35.4 40.05-34.2L40.05-34.2 40.05-21Q40.05-19.8 39.98-18.93 39.9-18.05 39.7-17.28 39.5-16.5 39.18-15.68 38.85-14.85 38.4-13.7L38.4-13.7 33.5-1.45Q33.35-1 33.1-0.65 32.85-0.3 32.6-0.1L32.6-0.1 26.15 5.25Q25.75 5.6 25.23 5.78 24.7 5.95 24.05 5.95L24.05 5.95ZM17.5 0L30.5 0Q31.45 0 32.08-0.35 32.7-0.7 33.05-1.65L33.05-1.65 37.95-13.9Q38.4-15 38.7-15.83 39-16.65 39.2-17.4 39.4-18.15 39.48-18.98 39.55-19.8 39.55-21L39.55-21 39.55-34.2Q39.55-35.15 39.13-35.58 38.7-36 37.75-36L37.75-36 29.9-36Q28.95-36 28.53-35.58 28.1-35.15 28.1-34.2L28.1-34.2 28.1-20.45Q28.1-19.95 28-19.45 27.9-18.95 27.7-18.4L27.7-18.4 25.35-11.35Q25.2-10.85 25-10.68 24.8-10.5 24.4-10.5L24.4-10.5 23.85-10.5Q23.45-10.5 23.25-10.68 23.05-10.85 22.9-11.35L22.9-11.35 20.55-18.35Q20.35-18.9 20.25-19.4 20.15-19.9 20.15-20.4L20.15-20.4 20.15-34.2Q20.15-35.15 19.65-35.58 19.15-36 18.2-36L18.2-36 10.25-36Q9.3-36 8.88-35.58 8.45-35.15 8.45-34.2L8.45-34.2 8.45-21Q8.45-19.8 8.53-18.98 8.6-18.15 8.8-17.4 9-16.65 9.3-15.83 9.6-15 10.05-13.9L10.05-13.9 14.95-1.65Q15.3-0.7 15.93-0.35 16.55 0 17.5 0L17.5 0ZM14.1-20.7L14.1-31.5 14.6-31.5 14.6-20.7Q14.6-19.4 14.8-18.23 15-17.05 15.4-16.05L15.4-16.05 18.7-8.05Q19.2-6.75 19.83-5.88 20.45-5 21.85-5L21.85-5 26.25-5Q27.65-5 28.28-5.88 28.9-6.75 29.4-8.05L29.4-8.05 32.7-16.05Q33.1-17.05 33.3-18.23 33.5-19.4 33.5-20.7L33.5-20.7 33.5-31.5 34-31.5 34-20.7Q34-19.3 33.83-18.13 33.65-16.95 33.2-15.85L33.2-15.85 29.9-7.85Q29.3-6.4 28.55-5.45 27.8-4.5 26.25-4.5L26.25-4.5 21.85-4.5Q20.3-4.5 19.55-5.45 18.8-6.4 18.2-7.85L18.2-7.85 14.9-15.85Q14.45-16.95 14.28-18.13 14.1-19.3 14.1-20.7L14.1-20.7Z" opacity="1" transform="matrix(1,0,0,1,0,0)" fill="#ffffff" class="wordmark-text-0" data-fill-palette-color="primary" id="text-0"></path></svg></g></svg></g></svg></g></svg></g><g></g></svg></g></svg></g><defs></defs></svg><rect width="224.48904593639577" height="247.2" fill="none" stroke="none" visibility="hidden"></rect></g></svg></g></svg>