<svg width="250" height="250" viewBox="0 0 250 250" fill="none" xmlns="http://www.w3.org/2000/svg">
<g clip-path="url(#clip0_7_47)">
<path d="M124 247.5C121.1 247.5 118.7 245.1 118.7 242.2V125.1C118.7 122.2 121.1 119.8 124 119.8C126.9 119.8 129.3 122.2 129.3 125.1V242.2C129.3 245.1 126.9 247.5 124 247.5Z" fill="white"/>
<path d="M194.6 247.5C193.1 247.5 191.6 246.8 190.6 245.7L120.1 163.8C118.2 161.6 118.4 158.2 120.6 156.3C122.8 154.4 126.2 154.6 128.1 156.8L198.6 238.7C200.5 240.9 200.3 244.3 198.1 246.2C197.1 247 195.9 247.5 194.7 247.5H194.6Z" fill="white"/>
<path d="M49.6 247.5C46.7 247.5 44.3 245.1 44.3 242.2C44.3 240.9 44.8 239.6 45.7 238.6L120.2 156.7C122 154.4 125.3 153.9 127.6 155.6C129.9 157.4 130.4 160.7 128.7 163C128.5 163.3 128.3 163.5 128.1 163.7L53.6 245.6C52.5 246.8 51.1 247.5 49.6 247.5Z" fill="white"/>
<path d="M128.6 85.2C129 85 130.9 83.9 135.4 81.7C138.9 80.1 141.7 78.7 142.7 78.2" stroke="white" stroke-width="10.5817" stroke-linecap="round" stroke-linejoin="round"/>
<path d="M227.8 186.3C229.236 186.3 230.4 185.136 230.4 183.7C230.4 182.264 229.236 181.1 227.8 181.1C226.364 181.1 225.2 182.264 225.2 183.7C225.2 185.136 226.364 186.3 227.8 186.3Z" stroke="white" stroke-width="17.6361" stroke-linecap="round" stroke-linejoin="round"/>
<path d="M39.8 57.6C27.6 57.6 17.6 47.7 17.6 35.4C17.6 23.2 27.5 13.2 39.8 13.2C52 13.2 62 23.1 62 35.4C62 47.6 52.1 57.5 39.8 57.6ZM39.8 23.8C33.4 23.8 28.2 29 28.2 35.4C28.2 41.8 33.4 47 39.8 47C46.2 47 51.4 41.8 51.4 35.4C51.3 29.1 46.1 24 39.8 24V23.8Z" fill="white"/>
<path d="M111.6 131.6C109.4 131.6 107.3 130.2 106.6 128.1L87.4 71.7C86.5 69.2 87.7 66.4 90.1 65.2L157.4 32.5C160 31.2 163.2 32.3 164.5 35C164.6 35.2 164.7 35.4 164.7 35.6L189.6 107.3C190.6 110 189.3 113.1 186.6 114.1C186.4 114.2 186.1 114.3 185.9 114.3L112.9 131.9C112.4 131.8 112 131.8 111.6 131.6ZM98.9 72.5L115.1 120L177.7 104.9L156.5 44.4L98.9 72.5Z" fill="white"/>
<path d="M50.7 143.5C48.4 143.5 46.4 142.1 45.7 140L34.9 105.9C34.1 103.4 35.3 100.6 37.7 99.5L93.3 73.6C96 72.4 99.1 73.5 100.3 76.2C100.4 76.4 100.4 76.5 100.5 76.7L114.9 119.7C115.8 122.5 114.3 125.5 111.6 126.4C111.5 126.4 111.5 126.4 111.4 126.5L52 143.3C51.6 143.4 51.1 143.5 50.7 143.5ZM46.3 106.9L54.2 131.6L103.2 117.5L92.3 85.3L46.3 106.9Z" fill="white"/>
<path d="M191.9 130.7C189.7 130.7 187.7 129.3 186.9 127.2L148.1 19.2C147.1 16.4 148.5 13.4 151.3 12.4L177.9 2.9C180.6 1.9 183.7 3.3 184.7 6.1L223.5 114.1C224.5 116.9 223.1 119.9 220.3 120.9L193.7 130.4C193.2 130.5 192.5 130.7 191.9 130.7ZM159.9 20.5L195.2 118.6L211.8 112.6L176.5 14.5L159.9 20.5Z" fill="white"/>
<path d="M216.7 106.1C213.8 106.1 211.4 103.7 211.4 100.8C211.4 99.7 211.8 98.5 212.5 97.6C217.9 90.3 221 81.6 221.6 72.6C221.9 64.2 220 55.8 216 48.3C212.4 41.6 207.3 35.9 201 31.5C196.4 28.1 191.4 25.5 186 23.7C183.2 22.7 181.8 19.7 182.8 16.9C183.8 14.1 186.8 12.7 189.6 13.7C196 15.9 202.1 19 207.5 23C215 28.3 221.2 35.3 225.5 43.4C230.3 52.6 232.7 62.8 232.3 73.2C231.7 84.3 227.8 95 221.2 104C220.1 105.3 218.5 106.1 216.7 106.1Z" fill="white"/>
</g>
<defs>
<clipPath id="clip0_7_47">
<rect width="250" height="250" fill="white"/>
</clipPath>
</defs>
</svg>
